<?xml version="1.0" standalone="no"?>
<!DOCTYPE svg PUBLIC "-//W3C//DTD SVG 1.1//EN" "http://www.w3.org/Graphics/SVG/1.1/DTD/svg11.dtd" >
<!--
2013-9-30: Created.
-->
<svg>
<metadata>
Created by iconfont
</metadata>
<defs>

<font id="iconfont" horiz-adv-x="1024" >
  <font-face
    font-family="iconfont"
    font-weight="500"
    font-stretch="normal"
    units-per-em="1024"
    ascent="896"
    descent="-128"
  />
    <missing-glyph />
    
    <glyph glyph-name="new_shaixuan1" unicode="&#59582;" d="M412.8-50.637c-15.36 0-25.6 10.24-25.6 25.6v478.72l-256 322.56c-5.12 7.68-7.68 17.92-2.56 28.16 5.12 7.68 12.8 15.36 23.04 15.36h716.8c10.24 0 17.92-5.12 23.04-12.8 5.12-7.68 5.12-17.92-2.56-25.6l-222.72-325.12v-92.16c0-15.36-10.24-25.6-25.6-25.6s-25.6 10.24-25.6 25.6v99.84c0 5.12 2.56 10.24 5.12 15.36l199.68 289.28h-614.4l227.84-289.28c2.56-5.12 5.12-10.24 5.12-15.36v-488.96c0-15.36-10.24-25.6-25.6-25.6zM824.96 200.243H579.2c-15.36 0-25.6 10.24-25.6 25.6s10.24 25.6 25.6 25.6h245.76c15.36 0 25.6-10.24 25.6-25.6s-10.24-25.6-25.6-25.6z m0-151.04H579.2c-15.36 0-25.6 10.24-25.6 25.6s10.24 25.6 25.6 25.6h245.76c15.36 0 25.6-10.24 25.6-25.6s-10.24-25.6-25.6-25.6z"  horiz-adv-x="1024" />

    
    <glyph glyph-name="new_morentouxiang1" unicode="&#59476;" d="M0 384.005786A511.994214 511.994214 0 1 1 511.994214 896 511.994214 511.994214 0 0 1 0 384.005786zM511.983975 148.21197a459.955123 459.955123 0 0 0 338.848011-148.273525c-18.431792-28.026563-159.035643-128.35695-337.793303-127.937114s-328.085893 106.750794-339.902719 127.937114a459.955123 459.955123 0 0 0 338.848011 148.273525zM512.035174 281.412385a81.919074 81.919074 0 0 0 81.919074-81.919074v-81.919075a81.919074 81.919074 0 0 0-163.766469 0v81.919075a81.919074 81.919074 0 0 0 81.847395 81.919074zM266.452029 384.210583V581.901789c0 54.793621 55.530893 109.280045 111.49186 109.280045H646.136699c55.960968 0 111.49186-54.373786 111.49186-109.280045V384.210583zM225.093136 363.526017a71.781589 71.781589 0 1 1 71.781589 71.67919 71.67919 71.67919 0 0 1-71.781589-71.67919z m430.351617 0a71.781589 71.781589 0 1 1 71.781589 71.67919 71.67919 71.67919 0 0 1-71.781589-71.67919zM511.994214 619.308087a204.654327 204.654327 0 0 0 204.654328-204.654328v-81.919074a204.654327 204.654327 0 1 0-409.298415 0v81.919074A204.654327 204.654327 0 0 0 511.994214 619.308087zM511.994214 573.320766c81.355881 0 147.218816 36.781664 147.218817 82.195551V759.000588Q557.418341 737.814267 511.994214 737.711869c-81.355881 0-147.218816-36.781664-147.218816-82.195552S430.638334 573.320766 511.994214 573.320766z"  horiz-adv-x="1024" />

    
    <glyph glyph-name="new_shoujihao1" unicode="&#59474;" d="M170.683164 775.50833A122.40475 122.40475 0 0 0 294.410517 895.993174h435.178966a125.007291 125.007291 0 0 0 87.462439-35.240964 118.820924 118.820924 0 0 0 36.179585-85.329209v-782.938158A122.40475 122.40475 0 0 0 729.589483-127.957335H294.410517a125.007291 125.007291 0 0 0-87.462439 35.240963 118.820924 118.820924 0 0 0-36.179585 85.329209z m341.316836-845.22848a62.631639 62.631639 0 1 1-65.831485 62.588975A64.252894 64.252894 0 0 1 512-69.72015z m-245.705458 183.841781H759.454706V775.03902H266.294542z"  horiz-adv-x="1024" />

    
    <glyph glyph-name="new_dadianhua1" unicode="&#59475;" d="M996.166297 128.587335l-149.942429 125.65907a77.750635 77.750635 0 0 1-109.457973-9.801115l-51.858138-60.525541c-44.946157-38.034177-154.40413 62.171251-230.399341 140.653312a1725.252214 1725.252214 0 0 0-45.531299 47.250151 28.818203 28.818203 0 0 1-42.057022-39.204459c14.994243-16.127954 30.537056-32.292479 47.25015-48.420434 106.60541-106.641981 230.399342-215.002814 314.513387-140.653312l54.162131 64.548387a19.60223 19.60223 0 0 0 13.823961 6.91198 19.017089 19.017089 0 0 0 14.994243-4.607987l149.942428-125.659069a20.187371 20.187371 0 0 0 0-28.233062l-64.511815-76.104926c-69.704944-69.741515-172.836078-52.443279-245.430156-25.929068a1109.683687 1109.683687 0 0 0-566.855523 567.184665c-26.51421 73.764361-43.885589 175.798355 23.625075 243.821017l76.79978 68.022663a20.735941 20.735941 0 0 0 14.409102 4.607987 20.1508 20.1508 0 0 0 13.823961-6.91198l126.171068-149.942429a20.187371 20.187371 0 0 0 0-28.233062L271.651795 595.383716a110.701398 110.701398 0 0 1-4.607987-128.548204 28.891346 28.891346 0 1 1 51.858138 25.380499c-21.942794 44.397587-8.630832 57.636407-6.91198 62.829535l61.659252 53.613561a77.823778 77.823778 0 0 1 9.801115 109.531115l-126.171068 149.942429A77.750635 77.750635 0 0 1 147.821292 877.933766L66.596381 809.325962C-5.997697 737.280453-18.687947 631.772184 27.428493 503.809121a1201.002283 1201.002283 0 0 1 604.377702-604.670273 407.770264 407.770264 0 0 1 138.276176-27.099351 230.399342 230.399342 0 0 1 169.398373 68.022663l66.852381 79.54263a77.823778 77.823778 0 0 1-9.801115 109.531115zM751.394425 490.570301a33.243334 33.243334 0 0 1 66.486667 0 200.045143 200.045143 0 0 1-199.496573 199.496573 33.206762 33.206762 0 1 1 0-66.450096 133.41219 133.41219 0 0 0 132.973334-133.046477z m133.046477 0a33.206762 33.206762 0 0 1 66.450095 0 333.493904 333.493904 0 0 1-332.469907 332.469907 33.243334 33.243334 0 1 1 0-66.486667 266.970666 266.970666 0 0 0 266.019812-265.98324z"  horiz-adv-x="1024" />

    
    <glyph glyph-name="new_yindaoshezhi" unicode="&#59471;" d="M760.32 332.8H512c-15.36 0-25.6 10.24-25.6 25.6s10.24 25.6 25.6 25.6h238.08c30.72 23.04 151.04 117.76 202.24 161.28-53.76 38.4-171.52 125.44-202.24 145.92H102.4c-28.16 0-51.2-23.04-51.2-51.2v-204.8c0-28.16 23.04-51.2 51.2-51.2h281.6c15.36 0 25.6-10.24 25.6-25.6s-10.24-25.6-25.6-25.6H102.4c-56.32 0-102.4 46.08-102.4 102.4v204.8c0 56.32 46.08 102.4 102.4 102.4h657.92c5.12 0 10.24-2.56 12.8-5.12 15.36-10.24 222.72-161.28 238.08-174.08 5.12-5.12 10.24-12.8 10.24-20.48 0-7.68-2.56-15.36-7.68-20.48-15.36-12.8-222.72-176.64-238.08-189.44-5.12 2.56-10.24 0-15.36 0zM460.8-128h-102.4c-56.32 0-102.4 46.08-102.4 102.4V332.8h51.2v-358.4c0-28.16 23.04-51.2 51.2-51.2h102.4c28.16 0 51.2 23.04 51.2 51.2V358.4h51.2v-384c0-56.32-46.08-102.4-102.4-102.4z m102.4 819.2H256V793.6c0 56.32 46.08 102.4 102.4 102.4h102.4c56.32 0 102.4-46.08 102.4-102.4v-102.4zM307.2 742.4h204.8V793.6c0 28.16-23.04 51.2-51.2 51.2h-102.4c-28.16 0-51.2-23.04-51.2-51.2v-51.2zM691.2 435.2c-56.32 0-102.4 46.08-102.4 102.4s46.08 102.4 102.4 102.4 102.4-46.08 102.4-102.4-46.08-102.4-102.4-102.4z m0 153.6c-28.16 0-51.2-23.04-51.2-51.2s23.04-51.2 51.2-51.2 51.2 23.04 51.2 51.2-23.04 51.2-51.2 51.2z"  horiz-adv-x="1024" />

    
    <glyph glyph-name="new_huodongshezhi" unicode="&#59472;" d="M742.4-81.28H281.6c-84.48 0-153.6 69.12-153.6 153.6v332.8c0 28.16 23.04 51.2 51.2 51.2h399.36c15.36 0 25.6-10.24 25.6-25.6s-10.24-25.6-25.6-25.6H179.2v-332.8c0-56.32 46.08-102.4 102.4-102.4h460.8c56.32 0 102.4 46.08 102.4 102.4v332.8c-15.36 0-25.6 10.24-25.6 25.6s10.24 25.6 25.6 25.6c28.16 0 51.2-23.04 51.2-51.2v-332.8c0-84.48-69.12-153.6-153.6-153.6zM832 405.12c-15.36 0-25.6 10.24-25.6 25.6s10.24 25.6 25.6 25.6c48.64 0 89.6 40.96 89.6 89.6s-40.96 89.6-89.6 89.6h-640c-48.64 0-89.6-40.96-89.6-89.6s40.96-89.6 89.6-89.6h481.28c15.36 0 25.6-10.24 25.6-25.6s-10.24-25.6-25.6-25.6H192c-76.8 0-140.8 64-140.8 140.8s64 140.8 140.8 140.8h640c76.8 0 140.8-64 140.8-140.8s-64-140.8-140.8-140.8zM243.2 635.52l-5.12 20.48c0 2.56-23.04 84.48 10.24 140.8 15.36 23.04 35.84 38.4 64 46.08 107.52 25.6 212.48-148.48 225.28-166.4l23.04-38.4-317.44-2.56z m94.72 158.72c-2.56 0-7.68 0-10.24-2.56-15.36-2.56-25.6-10.24-33.28-23.04-15.36-23.04-12.8-58.88-10.24-81.92h184.32c-33.28 46.08-87.04 107.52-130.56 107.52zM783.36 635.52H468.48l23.04 38.4c12.8 20.48 115.2 194.56 225.28 166.4 25.6-5.12 48.64-20.48 61.44-46.08 33.28-56.32 12.8-135.68 10.24-140.8l-5.12-17.92z m-222.72 51.2H742.4c2.56 23.04 5.12 58.88-10.24 81.92-7.68 12.8-17.92 20.48-33.28 23.04-43.52 12.8-102.4-53.76-138.24-104.96zM473.6 90.24l-107.52 104.96c-10.24 10.24-10.24 25.6 0 35.84 10.24 10.24 25.6 10.24 35.84 0l71.68-69.12 143.36 140.8c10.24 10.24 25.6 10.24 35.84 0 10.24-10.24 10.24-25.6 0-35.84l-179.2-176.64z"  horiz-adv-x="1024" />

    
    <glyph glyph-name="new_baojiaqishezhi" unicode="&#59473;" d="M819.2-76.8c-15.36 0-25.6 10.24-25.6 25.6s10.24 25.6 25.6 25.6c56.32 0 102.4 46.08 102.4 102.4V691.2c0 56.32-46.08 102.4-102.4 102.4H204.8C148.48 793.6 102.4 747.52 102.4 691.2v-614.4c0-56.32 46.08-102.4 102.4-102.4h430.08c15.36 0 25.6-10.24 25.6-25.6s-10.24-25.6-25.6-25.6H204.8c-84.48 0-153.6 69.12-153.6 153.6V691.2c0 84.48 69.12 153.6 153.6 153.6h614.4c84.48 0 153.6-69.12 153.6-153.6v-614.4c0-84.48-69.12-153.6-153.6-153.6zM768 537.6h-153.6c-15.36 0-25.6 10.24-25.6 25.6s10.24 25.6 25.6 25.6h153.6c15.36 0 25.6-10.24 25.6-25.6s-10.24-25.6-25.6-25.6zM768 230.4h-153.6c-15.36 0-25.6 10.24-25.6 25.6s10.24 25.6 25.6 25.6h153.6c15.36 0 25.6-10.24 25.6-25.6s-10.24-25.6-25.6-25.6zM768 102.4h-153.6c-15.36 0-25.6 10.24-25.6 25.6s10.24 25.6 25.6 25.6h153.6c15.36 0 25.6-10.24 25.6-25.6s-10.24-25.6-25.6-25.6zM409.6 537.6h-153.6c-15.36 0-25.6 10.24-25.6 25.6s10.24 25.6 25.6 25.6h153.6c15.36 0 25.6-10.24 25.6-25.6s-10.24-25.6-25.6-25.6zM332.8 460.8c-15.36 0-25.6 10.24-25.6 25.6v153.6c0 15.36 10.24 25.6 25.6 25.6s25.6-10.24 25.6-25.6v-153.6c0-15.36-10.24-25.6-25.6-25.6zM386.56 125.44c-7.68 0-12.8 2.56-17.92 7.68l-107.52 107.52c-10.24 10.24-10.24 25.6 0 35.84s25.6 10.24 35.84 0l107.52-107.52c10.24-10.24 10.24-25.6 0-35.84-5.12-5.12-10.24-7.68-17.92-7.68zM279.04 125.44c-7.68 0-12.8 2.56-17.92 7.68-10.24 10.24-10.24 25.6 0 35.84l107.52 107.52c10.24 10.24 25.6 10.24 35.84 0s10.24-25.6 0-35.84l-107.52-107.52c-5.12-5.12-12.8-7.68-17.92-7.68z"  horiz-adv-x="1024" />

    
    <glyph glyph-name="new_shezhi1" unicode="&#59470;" d="M498.551467-123.0848c-10.24 0-17.066667 3.413333-27.306667 6.826667l-385.706667 228.693333c-17.066667 10.24-23.893333 27.306667-23.893333 44.373333v447.146667c0 17.066667 10.24 34.133333 23.893333 44.373333l382.293334 221.866667c17.066667 10.24 34.133333 10.24 51.2 0l385.706666-225.28c17.066667-10.24 23.893333-27.306667 23.893334-44.373333v-450.56c0-17.066667-10.24-34.133333-23.893334-44.373334l-385.706666-225.28c-3.413333-3.413333-13.653333-3.413333-20.48-3.413333z m-334.506667 307.2l334.506667-197.973333 334.506666 194.56v392.533333l-337.92 194.56-334.506666-194.56 3.413333-389.12zM495.138133 197.768533c-98.986667 0-177.493333 78.506667-177.493333 177.493334 0 98.986667 78.506667 177.493333 177.493333 177.493333s177.493333-78.506667 177.493334-177.493333-78.506667-177.493333-177.493334-177.493334z m-75.093333 180.906667c0-40.96 34.133333-75.093333 75.093333-75.093333 40.96 0 75.093333 34.133333 75.093334 75.093333s-34.133333 75.093333-75.093334 75.093333-75.093333-34.133333-75.093333-75.093333z"  horiz-adv-x="1024" />

    
    <glyph glyph-name="new_shangpinxiangqingshezhiyongjin" unicode="&#59469;" d="M520.533333-106.666667H166.4C85.333333-106.666667 21.333333-42.666667 21.333333 38.4V729.6C21.333333 810.666667 85.333333 874.666667 166.4 874.666667h691.2c81.066667 0 145.066667-64 145.066667-145.066667v-358.4c0-12.8-8.533333-21.333333-21.333334-21.333333s-21.333333 8.533333-21.333333 21.333333V729.6c0 55.466667-46.933333 102.4-102.4 102.4H166.4c-55.466667 0-102.4-46.933333-102.4-102.4v-691.2c0-55.466667 46.933333-102.4 102.4-102.4h354.133333c12.8 0 21.333333-8.533333 21.333334-21.333333s-8.533333-21.333333-21.333334-21.333334zM520.533333 332.8c-128 0-234.666667 93.866667-234.666666 209.066667V597.333333c0 12.8 8.533333 21.333333 21.333333 21.333334s21.333333-12.8 21.333333-21.333334v-55.466666c0-89.6 85.333333-166.4 192-166.4s192 72.533333 192 166.4V597.333333c0 12.8 8.533333 21.333333 21.333334 21.333334s21.333333-8.533333 21.333333-21.333334v-55.466666c0-115.2-106.666667-209.066667-234.666667-209.066667zM275.84 587.562667C237.44 587.562667 207.573333 617.429333 207.573333 655.829333S237.44 724.096 275.84 724.096c38.4 0 68.266667-29.866667 68.266667-68.266667s-29.866667-68.266667-68.266667-68.266666z m0 93.866666c-12.8 0-25.6-12.8-25.6-25.6s12.8-25.6 25.6-25.6c17.066667 0 25.6 8.533333 25.6 25.6S292.906667 681.429333 275.84 681.429333zM748.629333 587.562667C710.229333 587.562667 680.362667 617.429333 680.362667 655.829333S710.229333 724.096 748.629333 724.096s68.266667-29.866667 68.266667-68.266667-29.866667-68.266667-68.266667-68.266666z m0 93.866666c-12.8 0-25.6-12.8-25.6-25.6s12.8-25.6 25.6-25.6 25.6 8.533333 25.6 25.6S765.696 681.429333 748.629333 681.429333zM897.194667 5.248h-209.066667c-12.8 0-21.333333 8.533333-21.333333 21.333333s8.533333 21.333333 21.333333 21.333334h209.066667c12.8 0 21.333333-8.533333 21.333333-21.333334s-12.8-21.333333-21.333333-21.333333zM897.194667 111.914667h-209.066667c-12.8 0-21.333333 8.533333-21.333333 21.333333s8.533333 21.333333 21.333333 21.333333h209.066667c12.8 0 21.333333-8.533333 21.333333-21.333333s-12.8-21.333333-21.333333-21.333333zM790.528-97.152c-12.8 0-21.333333 8.533333-21.333333 21.333333v209.066667c0 12.8 8.533333 21.333333 21.333333 21.333333s21.333333-8.533333 21.333333-21.333333v-209.066667c0-12.8-8.533333-21.333333-21.333333-21.333333zM769.706667 124.714667c-4.266667 0-12.8 0-17.066667 4.266666l-89.6 89.6c-8.533333 8.533333-8.533333 21.333333 0 29.866667s21.333333 8.533333 29.866667 0l89.6-89.6c8.533333-8.533333 8.533333-21.333333 0-29.866667 0-4.266667-4.266667-4.266667-12.8-4.266666zM812.373333 124.714667c-4.266667 0-12.8 0-17.066666 4.266666-4.266667 8.533333-4.266667 21.333333 4.266666 29.866667l89.6 89.6c8.533333 8.533333 21.333333 8.533333 29.866667 0s8.533333-21.333333 0-29.866667l-89.6-89.6c-4.266667-4.266667-12.8-4.266667-17.066667-4.266666z"  horiz-adv-x="1024" />

    
    <glyph glyph-name="new_xiezhuangxiuriji" unicode="&#59468;" d="M682.666667 685.511111l73.955555-73.955555-429.511111-429.511112-76.8-2.844444 2.844445 76.8L682.666667 685.511111M682.666667 753.777778c-2.844444 0-5.688889 0-8.533334-2.844445L204.8 281.6c-2.844444-2.844444-2.844444-5.688889-2.844444-11.377778L199.111111 147.911111c0-11.377778 11.377778-19.911111 19.911111-19.911111l122.311111 2.844444c2.844444 0 5.688889 0 8.533334 2.844445l469.333333 469.333333c5.688889 8.533333 2.844444 19.911111-2.844444 25.6l-119.466667 119.466667c-2.844444 2.844444-8.533333 5.688889-14.222222 5.688889zM768 14.222222H199.111111c-17.066667 0-28.444444 11.377778-28.444444 28.444445s11.377778 28.444444 28.444444 28.444444h568.888889c17.066667 0 28.444444-11.377778 28.444444-28.444444s-11.377778-28.444444-28.444444-28.444445zM768 156.444444h-227.555556c-17.066667 0-28.444444 11.377778-28.444444 28.444445s11.377778 28.444444 28.444444 28.444444h227.555556c17.066667 0 28.444444-11.377778 28.444444-28.444444s-11.377778-28.444444-28.444444-28.444445z"  horiz-adv-x="1024" />

    
    <glyph glyph-name="new_wodexuanzhong" unicode="&#59467;" d="M512 384m-512 0a512 512 0 1 1 1024 0 512 512 0 1 1-1024 0ZM512-128C230.4-128 0 102.4 0 384S230.4 896 512 896s512-230.4 512-512-230.4-512-512-512z m0 921.6C286.72 793.6 102.4 609.28 102.4 384s184.32-409.6 409.6-409.6 409.6 184.32 409.6 409.6S737.28 793.6 512 793.6zM524.8 99.2768h-2.56c-48.64 2.56-92.16 23.04-125.44 61.44-17.92 20.48-15.36 53.76 5.12 71.68 20.48 17.92 53.76 15.36 71.68-5.12 12.8-15.36 30.72-23.04 48.64-25.6 23.04 2.56 43.52 12.8 58.88 28.16 20.48 20.48 53.76 20.48 71.68 0s20.48-53.76 0-71.68c-33.28-33.28-79.36-53.76-128-56.32v-2.56z"  horiz-adv-x="1024" />

    
    <glyph glyph-name="new_kehuxuanzhong" unicode="&#59466;" d="M545.656658 530.832918m-288.558603 0a288.558603 288.558603 0 1 1 577.117207 0 288.558603 288.558603 0 1 1-577.117207 0ZM545.656658 191.201995c-186.413965 0-339.630923 153.216958-339.630922 339.630923C206.025736 717.246883 359.242693 870.46384 545.656658 870.46384s339.630923-153.216958 339.630923-339.630922c0-186.413965-153.216958-339.630923-339.630923-339.630923zM63.023242-115.23192c-5.107232 0-10.214464 0-12.76808 2.553616-28.089776 7.660848-43.411471 35.750623-35.750623 63.840399 0 2.553616 99.591022 342.184539 526.044887 342.184538 28.089776 0 51.072319-22.982544 51.07232-51.072319s-22.982544-51.072319-51.07232-51.072319c-349.845387-2.553616-426.453865-265.57606-429.007481-268.129676-5.107232-22.982544-25.53616-38.304239-48.518703-38.304239zM982.324988-117.223741h-398.36409c-28.089776 0-51.072319 22.982544-51.072319 51.07232s22.982544 51.072319 51.072319 51.072319h398.36409c28.089776 0 51.072319-22.982544 51.072319-51.072319s-22.982544-51.072319-51.072319-51.07232zM982.324988 56.422145h-224.718205c-28.089776 0-51.072319 22.982544-51.072319 51.072319s22.982544 51.072319 51.072319 51.072319h224.718205c28.089776 0 51.072319-22.982544 51.072319-51.072319s-22.982544-51.072319-51.072319-51.072319z"  horiz-adv-x="1034" />

    
    <glyph glyph-name="new_jingmeianlixuanzhong" unicode="&#59465;" d="M230.4-128c-128 0-230.4 102.4-230.4 230.4s102.4 230.4 230.4 230.4h230.4v-230.4c0-128-102.4-230.4-230.4-230.4zM563.2 332.8h230.4c128 0 230.4-102.4 230.4-230.4s-102.4-230.4-230.4-230.4-230.4 102.4-230.4 230.4v230.4zM793.6 896c128 0 230.4-102.4 230.4-230.4s-102.4-230.4-230.4-230.4h-230.4V665.6c0 128 102.4 230.4 230.4 230.4zM230.4 896c128 0 230.4-102.4 230.4-230.4v-230.4H230.4c-128 0-230.4 102.4-230.4 230.4s102.4 230.4 230.4 230.4z"  horiz-adv-x="1024" />

    
    <glyph glyph-name="new_mendianxuanzhong" unicode="&#59464;" d="M744.96-76.8H284.16c-84.48 0-153.6 69.12-153.6 153.6V537.6c0 84.48 69.12 153.6 153.6 153.6h460.8c84.48 0 153.6-69.12 153.6-153.6v-460.8c0-84.48-69.12-153.6-153.6-153.6zM284.16 640c-56.32 0-102.4-46.08-102.4-102.4v-460.8c0-56.32 46.08-102.4 102.4-102.4h460.8c56.32 0 102.4 46.08 102.4 102.4V537.6c0 56.32-46.08 102.4-102.4 102.4H284.16m0 102.4h460.8c112.64 0 204.8-92.16 204.8-204.8v-460.8c0-112.64-92.16-204.8-204.8-204.8H284.16c-112.64 0-204.8 92.16-204.8 204.8V537.6c0 112.64 92.16 204.8 204.8 204.8zM783.8976 375.6544c-51.2 0-99.84 20.48-135.68 58.88l-12.8-12.8c-33.28-30.72-76.8-46.08-120.32-46.08-51.2 0-97.28 20.48-133.12 58.88-35.84-35.84-81.92-58.88-133.12-58.88h-5.12c-28.16 0-58.88 7.68-84.48 20.48-7.68 2.56-12.8 7.68-20.48 12.8l-2.56 2.56h-2.56l-5.12 2.56c-43.52 35.84-69.12 89.6-69.12 148.48v7.68l2.56 7.68c5.12 20.48 28.16 74.24 58.88 143.36l2.56 2.56c15.36 33.28 28.16 64 35.84 84.48l12.8 30.72h693.76l12.8-30.72c33.28-76.8 89.6-212.48 94.72-230.4l2.56-7.68v-7.68c0-58.88-28.16-115.2-74.24-151.04h-5.12c-33.28-23.04-71.68-35.84-112.64-35.84zM202.7776 792.9344c-7.68-20.48-23.04-51.2-35.84-84.48-20.48-48.64-53.76-120.32-58.88-140.8 0-43.52 20.48-81.92 51.2-110.08 2.56-2.56 5.12-2.56 7.68-5.12 5.12-2.56 10.24-5.12 12.8-10.24 17.92-10.24 40.96-15.36 61.44-15.36h2.56c40.96 0 79.36 17.92 104.96 51.2 5.12 7.68 12.8 12.8 23.04 12.8h5.12c10.24 0 20.48-5.12 28.16-12.8 28.16-33.28 66.56-51.2 104.96-51.2 30.72 0 61.44 10.24 87.04 33.28 7.68 5.12 12.8 12.8 17.92 17.92 7.68 7.68 17.92 12.8 28.16 12.8s17.92-2.56 25.6-10.24l2.56-2.56c28.16-35.84 66.56-53.76 107.52-53.76 28.16 0 56.32 7.68 79.36 28.16 0 0 2.56 2.56 5.12 2.56 33.28 28.16 53.76 69.12 53.76 112.64-5.12 17.92-92.16 225.28-92.16 225.28h-622.08m0 102.4h627.2c40.96 0 79.36-25.6 94.72-61.44 89.6-212.48 94.72-230.4 97.28-235.52 2.56-10.24 5.12-20.48 5.12-30.72-2.56-74.24-35.84-143.36-92.16-189.44l-5.12-5.12c-40.96-30.72-89.6-48.64-143.36-48.64-48.64 0-97.28 15.36-135.68 43.52-38.4-28.16-84.48-40.96-133.12-40.96-48.64 0-94.72 15.36-133.12 40.96-38.4-28.16-84.48-40.96-133.12-40.96h-5.12c-38.4 0-74.24 10.24-107.52 25.6 0 0-2.56 0-2.56 2.56-7.68 5.12-17.92 10.24-25.6 15.36-2.56 0-2.56 2.56-5.12 2.56-2.56 2.56-5.12 5.12-7.68 5.12-53.76 46.08-87.04 112.64-87.04 186.88 0 10.24 0 20.48 5.12 30.72 0 23.04 17.92 64 53.76 148.48l2.56 2.56c15.36 33.28 28.16 64 35.84 84.48 15.36 38.4 53.76 64 94.72 64zM509.44 38.4c-28.16 0-51.2 23.04-51.2 51.2v102.4c0 28.16 23.04 51.2 51.2 51.2s51.2-23.04 51.2-51.2v-102.4c0-28.16-23.04-51.2-51.2-51.2zM104.96 588.8h793.6v-204.8H104.96zM908.8 896H120.32c-10.24-25.6-28.16-66.56-46.08-107.52-25.6-61.44-66.56-151.04-74.24-176.64 0-53.76 25.6-102.4 64-138.24 5.12-2.56 7.68-5.12 10.24-7.68 5.12-5.12 10.24-7.68 17.92-10.24h2.56c25.6-12.8 53.76-20.48 81.92-17.92 51.2 0 102.4 25.6 133.12 64 7.68 10.24 17.92 15.36 28.16 17.92h7.68c12.8 0 28.16-7.68 35.84-17.92 56.32-71.68 161.28-87.04 232.96-30.72l7.68 7.68 23.04 23.04c15.36 20.48 46.08 23.04 66.56 5.12l2.56-2.56 2.56-2.56c56.32-74.24 161.28-89.6 235.52-33.28l5.12 5.12c40.96 35.84 66.56 87.04 69.12 140.8-7.68 23.04-117.76 281.6-117.76 281.6z"  horiz-adv-x="1027" />

    
    <glyph glyph-name="new_shouyexuanzhong" unicode="&#59463;" d="M71.68 478.72c-17.92 0-33.28 7.68-43.52 23.04-15.36 23.04-7.68 56.32 15.36 71.68L499.2 862.72c17.92 10.24 38.4 10.24 56.32 0L998.4 573.44c23.04-15.36 30.72-46.08 15.36-71.68-15.36-23.04-46.08-30.72-71.68-15.36L527.36 757.76 99.84 486.4c-10.24-5.12-17.92-7.68-28.16-7.68zM527.36 632.32s355.84-227.84 386.56-250.88v-307.2c2.56-76.8-71.68-143.36-166.4-148.48H302.08c-97.28 5.12-171.52 69.12-166.4 148.48V378.88c28.16 20.48 391.68 253.44 391.68 253.44zM302.08-125.44c-69.12 2.56-130.56 30.72-171.52 74.24-33.28 35.84-48.64 79.36-46.08 125.44V404.48l20.48 15.36c28.16 20.48 355.84 230.4 394.24 253.44l28.16 17.92 28.16-17.92c15.36-10.24 355.84-227.84 389.12-250.88l23.04-15.36v-332.8c2.56-104.96-92.16-194.56-215.04-199.68H302.08zM583.68 153.6h-102.4c-28.16 0-51.2 23.04-51.2 51.2s23.04 51.2 51.2 51.2h102.4c28.16 0 51.2-23.04 51.2-51.2s-23.04-51.2-51.2-51.2z"  horiz-adv-x="1044" />

    
    <glyph glyph-name="new_wode" unicode="&#59462;" d="M512-128C230.4-128 0 102.4 0 384S230.4 896 512 896s512-230.4 512-512-230.4-512-512-512z m0 921.6C286.72 793.6 102.4 609.28 102.4 384s184.32-409.6 409.6-409.6 409.6 184.32 409.6 409.6S737.28 793.6 512 793.6zM524.8 99.2768h-2.56c-48.64 2.56-92.16 23.04-125.44 61.44-17.92 20.48-15.36 53.76 5.12 71.68 20.48 17.92 53.76 15.36 71.68-5.12 12.8-15.36 30.72-23.04 48.64-25.6 23.04 2.56 43.52 12.8 58.88 28.16 20.48 20.48 53.76 20.48 71.68 0s20.48-53.76 0-71.68c-33.28-33.28-79.36-53.76-128-56.32v-2.56z"  horiz-adv-x="1024" />

    
    <glyph glyph-name="new_kehu" unicode="&#59461;" d="M545.656658 191.201995c-186.413965 0-339.630923 153.216958-339.630922 339.630923 0 186.413965 153.216958 339.630923 339.630922 339.630922s339.630923-153.216958 339.630923-339.630922c0-186.413965-153.216958-339.630923-339.630923-339.630923z m0 577.117207c-130.234414 0-237.486284-107.25187-237.486284-237.486284s107.25187-237.486284 237.486284-237.486285c130.234414 0 237.486284 107.25187 237.486285 237.486285s-107.25187 237.486284-237.486285 237.486284zM63.023242-115.23192c-5.107232 0-10.214464 0-12.76808 2.553616-28.089776 7.660848-43.411471 35.750623-35.750623 63.840399 0 2.553616 99.591022 342.184539 526.044887 342.184538 28.089776 0 51.072319-22.982544 51.07232-51.072319s-22.982544-51.072319-51.07232-51.072319c-349.845387-2.553616-426.453865-265.57606-429.007481-268.129676-5.107232-22.982544-25.53616-38.304239-48.518703-38.304239zM982.324988-117.223741h-398.36409c-28.089776 0-51.072319 22.982544-51.072319 51.07232s22.982544 51.072319 51.072319 51.072319h398.36409c28.089776 0 51.072319-22.982544 51.072319-51.072319s-22.982544-51.072319-51.072319-51.07232zM982.324988 56.422145h-224.718205c-28.089776 0-51.072319 22.982544-51.072319 51.072319s22.982544 51.072319 51.072319 51.072319h224.718205c28.089776 0 51.072319-22.982544 51.072319-51.072319s-22.982544-51.072319-51.072319-51.072319z"  horiz-adv-x="1034" />

    
    <glyph glyph-name="new_jingmeianli" unicode="&#59460;" d="M230.534299-25.651162c71.62628 0 127.904072 56.277792 127.904072 127.904072v127.904072h-127.904072c-71.62628 0-127.904072-56.277792-127.904072-127.904072 0-69.068199 56.277792-127.904072 127.904072-127.904072m0-102.323257c-127.904072 0-230.22733 102.323258-230.227329 230.227329s102.323258 230.22733 230.227329 230.22733h230.22733v-230.22733c0-125.345991-104.881339-230.22733-230.22733-230.227329zM665.843018 230.156982v-127.904072c0-71.62628 56.277792-127.904072 127.904072-127.904072s127.904072 56.277792 127.904072 127.904072-56.277792 127.904072-127.904072 127.904072h-127.904072m-102.323258 102.323258h230.22733c127.904072 0 230.22733-102.323258 230.227329-230.22733s-102.323258-230.22733-230.227329-230.227329-230.22733 102.323258-230.22733 230.227329v230.22733zM793.74709 793.369773c-71.62628 0-127.904072-56.277792-127.904072-127.904072v-127.904072h127.904072c71.62628 0 127.904072 56.277792 127.904072 127.904072s-58.835873 127.904072-127.904072 127.904072m0 102.323257c127.904072 0 230.22733-102.323258 230.227329-230.227329s-102.323258-230.22733-230.227329-230.22733h-230.22733v230.22733c0 127.904072 102.323258 230.22733 230.22733 230.227329zM230.534299 793.369773c-71.62628 0-127.904072-56.277792-127.904072-127.904072s56.277792-127.904072 127.904072-127.904072h127.904072v127.904072c0 71.62628-58.835873 127.904072-127.904072 127.904072m0 102.323257c127.904072 0 230.22733-102.323258 230.22733-230.227329v-230.22733h-230.22733c-127.904072 0-230.22733 102.323258-230.227329 230.22733s102.323258 230.22733 230.227329 230.227329z"  horiz-adv-x="1024" />

    
    <glyph glyph-name="new_mendian" unicode="&#59459;" d="M0 896h1024v-1024H0zM179.2 384v-307.2c0-56.32 46.08-102.4 102.4-102.4h460.8c56.32 0 102.4 46.08 102.4 102.4V407.04l102.4 40.96V76.8c0-112.64-92.16-204.8-204.8-204.8H281.6c-112.64 0-204.8 92.16-204.8 204.8V440.32L179.2 384zM200.2176 792.9344c-7.68-20.48-23.04-51.2-35.84-84.48-20.48-48.64-53.76-120.32-58.88-140.8 0-43.52 20.48-81.92 51.2-110.08 2.56-2.56 5.12-2.56 7.68-5.12 5.12-2.56 10.24-5.12 12.8-10.24 17.92-10.24 40.96-15.36 61.44-15.36h2.56c40.96 0 79.36 17.92 104.96 51.2 5.12 7.68 12.8 12.8 23.04 12.8h5.12c10.24 0 20.48-5.12 28.16-12.8 28.16-33.28 66.56-51.2 104.96-51.2 30.72 0 61.44 10.24 87.04 33.28 7.68 5.12 12.8 12.8 17.92 17.92 7.68 7.68 17.92 12.8 28.16 12.8 10.24 0 17.92-2.56 25.6-10.24l2.56-2.56c28.16-35.84 66.56-53.76 107.52-53.76 28.16 0 56.32 7.68 79.36 28.16 0 0 2.56 2.56 5.12 2.56 33.28 28.16 53.76 69.12 53.76 112.64-5.12 17.92-92.16 225.28-92.16 225.28h-622.08m0 102.4h627.2c40.96 0 79.36-25.6 94.72-61.44 89.6-212.48 94.72-230.4 97.28-235.52 2.56-10.24 5.12-20.48 5.12-30.72-2.56-74.24-35.84-143.36-92.16-189.44l-5.12-5.12c-40.96-30.72-89.6-48.64-143.36-48.64-48.64 0-97.28 15.36-135.68 43.52-38.4-28.16-84.48-40.96-133.12-40.96-48.64 0-94.72 15.36-133.12 40.96-38.4-28.16-84.48-40.96-133.12-40.96h-5.12c-38.4 0-74.24 10.24-107.52 25.6 0 0-2.56 0-2.56 2.56-7.68 5.12-17.92 10.24-25.6 15.36-2.56 0-2.56 2.56-5.12 2.56-2.56 2.56-5.12 5.12-7.68 5.12-53.76 46.08-87.04 112.64-87.04 186.88 0 10.24 0 20.48 5.12 30.72 0 23.04 17.92 64 53.76 148.48l2.56 2.56c15.36 33.28 28.16 64 35.84 84.48 15.36 38.4 53.76 64 94.72 64zM506.88 38.4c-28.16 0-51.2 23.04-51.2 51.2v102.4c0 28.16 23.04 51.2 51.2 51.2s51.2-23.04 51.2-51.2v-102.4c0-28.16-23.04-51.2-51.2-51.2z"  horiz-adv-x="1024" />

    
    <glyph glyph-name="new_shouye" unicode="&#59458;" d="M71.68 478.72c-17.92 0-33.28 7.68-43.52 23.04-15.36 23.04-7.68 56.32 15.36 71.68L499.2 862.72c17.92 10.24 38.4 10.24 56.32 0L998.4 573.44c23.04-15.36 30.72-46.08 15.36-71.68-15.36-23.04-46.08-30.72-71.68-15.36L527.36 757.76 97.28 486.4c-7.68-5.12-17.92-7.68-25.6-7.68zM299.52-125.44c-115.2 0-212.48 94.72-215.04 212.48V550.4h102.4v-463.36c0-61.44 51.2-110.08 112.64-110.08h450.56c61.44 0 112.64 48.64 112.64 110.08V550.4h102.4v-463.36c-2.56-117.76-97.28-212.48-215.04-212.48H302.08h-2.56zM583.68 153.6h-102.4c-28.16 0-51.2 23.04-51.2 51.2s23.04 51.2 51.2 51.2h102.4c28.16 0 51.2-23.04 51.2-51.2s-23.04-51.2-51.2-51.2z"  horiz-adv-x="1044" />

    
    <glyph glyph-name="new_wodetuiwen" unicode="&#59457;" d="M983.888457 583.299657a512.497371 512.497371 0 0 1-943.689143 0 512.160914 512.160914 0 0 1 943.542857-398.599314 514.677029 514.677029 0 0 1 0.1024 398.599314zM656.354743 496.932571a69.968457 69.968457 0 0 0-69.909943 69.895315v80.457143H335.111314A42.554514 42.554514 0 0 1 292.571429 604.745143v-441.563429a42.525257 42.525257 0 0 1 42.539885-42.510628h357.419886a42.525257 42.525257 0 0 1 42.539886 42.510628V496.932571z m8.528457-281.526857H362.744686v28.496457h302.138514z m0 91.209143H362.744686v28.496457h302.138514z m0 91.209143H362.744686v28.496457h302.138514v-28.496457zM613.756343 647.314286v-80.457143a42.539886 42.539886 0 0 1 42.569143-42.525257h78.730971z"  horiz-adv-x="1024" />

    
    <glyph glyph-name="new_wodequanjingtu" unicode="&#59456;" d="M983.888457 583.299657a512.497371 512.497371 0 0 1-943.689143 0 512.160914 512.160914 0 0 1 943.542857-398.599314 514.677029 514.677029 0 0 1 0.1024 398.599314zM512.029257 511.034514a96.285257 96.285257 0 0 1-30.602971-5.105371 38.897371 38.897371 0 0 0-7.021715-53.569829 42.0864 42.0864 0 0 0-48.464457-10.839771 73.289143 73.289143 0 0 1 0-12.112457 84.1728 84.1728 0 1 1 86.089143 81.627428z m0 0M630.593829 225.499429a234.057143 234.057143 0 1 1-237.187658 0l-49.839542-86.557258A21.474743 21.474743 0 0 1 362.481371 106.057143h299.008a21.474743 21.474743 0 0 1 18.929372 32.855771zM512 292.469029a134.582857 134.582857 0 1 0 134.363429 134.582857 134.465829 134.465829 0 0 0-134.363429-134.582857z"  horiz-adv-x="1024" />

    
    <glyph glyph-name="new_wodexiaoguotu1" unicode="&#59455;" d="M983.888457 583.299657a512.497371 512.497371 0 0 1-943.689143 0 512.160914 512.160914 0 0 1 943.542857-398.599314 514.677029 514.677029 0 0 1 0.1024 398.599314zM340.757943 603.428571a58.997029 58.997029 0 1 0-58.411886-58.9824A58.719086 58.719086 0 0 0 340.757943 603.428571zM691.053714 164.571429c-90.360686 0-377.417143 3.803429-413.418057 3.803428s-57.636571 27.004343-33.133714 78.994286 71.68 129.872457 114.965943 129.872457 85.167543-106.174171 144.1792-106.174171 77.531429 178.819657 144.369371 178.819657 118.198857-142.555429 136.045714-204.170972S781.429029 164.571429 691.053714 164.571429z"  horiz-adv-x="1024" />

    
    <glyph glyph-name="new_xihuanxuanzhong" unicode="&#59453;" d="M803.207447 896A307.2 307.2 0 0 1 558.657629 769.582545 306.501818 306.501818 0 0 1 314.200902 896 327.400727 327.400727 0 0 1 0.205265 557.381818a445.765818 445.765818 0 0 1 91.089455-252.555636c117.806545-182.830545 414.626909-409.6 427.333818-418.909091a65.163636 65.163636 0 0 1 80.244364 0c12.753455 9.309091 308.875636 236.823273 427.333818 418.909091a445.765818 445.765818 0 0 1 91.089455 252.555636A327.400727 327.400727 0 0 1 803.207447 896z"  horiz-adv-x="1117" />

    
    <glyph glyph-name="new_xihuan1" unicode="&#59454;" d="M803.207447 896A307.2 307.2 0 0 1 558.657629 769.582545 306.501818 306.501818 0 0 1 314.200902 896 327.400727 327.400727 0 0 1 0.205265 557.381818a445.765818 445.765818 0 0 1 91.089455-252.555636c117.806545-182.830545 414.626909-409.6 427.333818-418.909091a65.163636 65.163636 0 0 1 80.244364 0c12.753455 9.309091 308.875636 236.823273 427.333818 418.909091a445.765818 445.765818 0 0 1 91.089455 252.555636A327.400727 327.400727 0 0 1 803.207447 896z m142.010182-589.265455c-108.916364-150.760727-339.456-322.885818-350.906182-331.077818a60.136727 60.136727 0 0 0-35.653818-12.567272 55.016727 55.016727 0 0 0-35.653818 12.567272 2078.626909 2078.626909 0 0 0-350.906182 337.361455C135.792175 369.570909 77.843084 439.901091 77.843084 539.182545c0 167.098182 94.254545 284.578909 249.018181 284.57891 85.969455 0 179.618909-81.035636 231.84291-151.412364 52.875636 70.376727 145.826909 151.412364 231.842909 151.412364 155.415273 0 256-117.480727 256-284.57891-0.046545-99.281455-64.372364-176.546909-101.282909-232.448z"  horiz-adv-x="1117" />

    
    <glyph glyph-name="new_shanchu2" unicode="&#59452;" d="M887.466667 622.933333v-682.666666c0-37.546667-30.72-68.266667-68.266667-68.266667H204.8c-37.546667 0-68.266667 30.72-68.266667 68.266667V622.933333H51.2C23.893333 622.933333 0 646.826667 0 674.133333S23.893333 725.333333 51.2 725.333333h921.6c27.306667 0 51.2-23.893333 51.2-51.2S1000.106667 622.933333 972.8 622.933333H887.466667z m-102.4 0H238.933333v-648.533333h546.133334V622.933333zM358.4 896h307.2c27.306667 0 51.2-23.893333 51.2-51.2S692.906667 793.6 665.6 793.6h-307.2C331.093333 793.6 307.2 817.493333 307.2 844.8S331.093333 896 358.4 896z m68.266667-443.733333c27.306667 0 51.2-23.893333 51.2-51.2v-238.933334c0-27.306667-23.893333-51.2-51.2-51.2s-51.2 23.893333-51.2 51.2v238.933334c0 27.306667 23.893333 51.2 51.2 51.2z m170.666666 0c27.306667 0 51.2-23.893333 51.2-51.2v-238.933334c0-27.306667-23.893333-51.2-51.2-51.2s-51.2 23.893333-51.2 51.2v238.933334c0 27.306667 23.893333 51.2 51.2 51.2z"  horiz-adv-x="1024" />

    
    <glyph glyph-name="new_xiayi" unicode="&#59451;" d="M461.07047-85.242283S131.726174 250.892617 84.191946 308.612751c-23.767114 23.767114-20.371812 61.115436 3.395302 84.882551 23.767114 20.371812 61.115436 20.371812 81.487248 0 61.115436-57.720134 291.995973-291.995973 291.995974-291.995974V824.698658c0 40.743624 33.95302 71.301342 71.301342 71.301342s71.301342-33.95302 71.301342-71.301342v-726.594632s237.671141 261.438255 275.019464 291.995974c27.162416 23.767114 67.90604 20.371812 91.673154-10.185906 20.371812-23.767114 20.371812-57.720134 0-81.487249-23.767114-30.557718-366.692618-390.459732-366.692618-390.459732-30.557718-40.743624-88.277852-47.534228-125.626174-16.97651-3.395302 10.185906-10.185906 16.97651-16.97651 23.767114z"  horiz-adv-x="1024" />

    
    <glyph glyph-name="new_shangyi" unicode="&#59450;" d="M461.07047 856.637585S131.726174 520.502685 84.191946 462.782551c-23.767114-23.767114-20.371812-61.115436 3.395302-84.882551 23.767114-20.371812 61.115436-20.371812 81.487248 0 61.115436 57.720134 291.995973 291.995973 291.995974 291.995974V-56.698658c0-40.743624 33.95302-71.301342 71.301342-71.301342 40.743624 0 71.301342 33.95302 71.301342 71.301342V669.895974s237.671141-261.438255 275.019464-291.995974c27.162416-23.767114 67.90604-20.371812 91.673154 10.185906 20.371812 23.767114 20.371812 57.720134 0 81.487249C946.598658 500.130873 603.673154 860.032887 603.673154 860.032887 573.115436 900.776511 515.395302 907.567115 478.04698 877.009397c-3.395302-6.790604-10.185906-13.581208-16.97651-20.371812z"  horiz-adv-x="1024" />

    
    <glyph glyph-name="new_huantu" unicode="&#59449;" d="M922.7264 626.346667h-597.333333c-30.72 0-58.026667-23.893333-58.026667-54.613334v-600.746666c0-34.133333 27.306667-61.44 61.44-61.44h597.333333c34.133333 0 61.44 27.306667 61.44 61.44V568.32c-3.413333 30.72-30.72 58.026667-64.853333 58.026667z m0-58.026667v-170.666667l-197.973333-197.973333c-17.066667-13.653333-40.96-17.066667-58.026667-6.826667l-109.226667 58.026667c-40.96 23.893333-92.16 17.066667-126.293333-17.066667l-109.226667-95.573333V558.08l600.746667 10.24z m-593.92-604.16v92.16l150.186667 133.12c13.653333 13.653333 37.546667 17.066667 54.613333 6.826667l109.226667-58.026667c40.96-23.893333 95.573333-17.066667 129.706666 20.48l153.6 150.186667v-337.92l-597.333333-6.826667zM328.8064-110.933333c-44.373333 0-78.506667 37.546667-78.506667 78.506666V568.32c0 44.373333 34.133333 78.506667 75.093334 75.093333h597.333333c40.96 0 78.506667-30.72 85.333333-71.68v-600.746666c0-44.373333-37.546667-78.506667-78.506666-78.506667h-600.746667z m-3.413333 720.213333c-20.48 0-40.96-17.066667-40.96-37.546667v-600.746666c0-23.893333 20.48-44.373333 47.786666-44.373334h597.333334c23.893333 0 44.373333 20.48 44.373333 44.373334V568.32c-3.413333 23.893333-23.893333 40.96-51.2 40.96h-597.333333z m3.413333-662.186667v13.653334l-17.066667 3.413333v98.986667l157.013334 139.946666c20.48 17.066667 47.786667 20.48 71.68 10.24l109.226666-58.026666c37.546667-20.48 81.92-13.653333 109.226667 17.066666l184.32 180.906667v-395.946667l-614.4-10.24z m17.066667 102.4v-68.266666l563.2 6.826666v283.306667l-126.293334-122.88c-37.546667-40.96-98.986667-51.2-150.186666-23.893333l-109.226667 58.026666c-10.24 3.413333-23.893333 3.413333-34.133333-6.826666l-143.36-126.293334z m-37.546667 47.786667v477.866667l631.466667 10.24v-194.56l-201.386667-201.386667c-20.48-20.48-51.2-23.893333-78.506667-10.24l-109.226666 54.613333c-34.133333 20.48-78.506667 13.653333-105.813334-13.653333l-136.533333-122.88z m34.133333 443.733333v-368.64l81.92 71.68c37.546667 37.546667 98.986667 44.373333 143.36 20.48l109.226667-58.026666c13.653333-6.826667 27.306667-3.413333 37.546667 6.826666l191.146666 191.146667v146.773333l-563.2-10.24zM554.0864 366.933333c-20.48 0-37.546667 17.066667-37.546667 37.546667 0 20.48 17.066667 37.546667 37.546667 37.546667 20.48 0 37.546667-17.066667 37.546667-37.546667 0-20.48-17.066667-37.546667-37.546667-37.546667z m0 54.613334c-10.24 0-17.066667-6.826667-17.066667-17.066667s6.826667-17.066667 17.066667-17.066667 17.066667 6.826667 17.066667 17.066667c0 6.826667-6.826667 13.653333-17.066667 17.066667zM554.0864 349.866667c-30.72 0-54.613333 23.893333-54.613333 54.613333 0 30.72 23.893333 54.613333 54.613333 54.613333 30.72 0 54.613333-23.893333 54.613333-54.613333 0-30.72-23.893333-54.613333-54.613333-54.613333z m0 71.68v-17.066667 17.066667zM175.2064 138.24h-78.506667c-34.133333 0-61.44 27.306667-61.44 61.44V800.426667c0 34.133333 27.306667 61.44 61.44 61.44h593.92c34.133333 0 61.44-27.306667 61.44-61.44v-78.506667h-61.44V800.426667h-593.92v-593.92h78.506667v-68.266667zM195.6864 121.173333h-95.573333c-44.373333 0-78.506667 37.546667-78.506667 78.506667V800.426667c0 44.373333 37.546667 78.506667 78.506667 78.506666h593.92c44.373333 0 78.506667-37.546667 78.506666-78.506666v-98.986667h-95.573333V779.946667h-563.2v-559.786667h78.506667v-98.986667z m494.933333 723.626667h-593.92c-23.893333 0-44.373333-20.48-44.373333-47.786667v-597.333333c0-23.893333 20.48-44.373333 47.786667-44.373333h61.44v34.133333h-78.506667V817.493333h628.053333v-78.506666h27.306667V800.426667c-3.413333 23.893333-23.893333 44.373333-47.786667 44.373333z"  horiz-adv-x="1024" />

    
    <glyph glyph-name="new_bianji" unicode="&#59448;" d="M353.773289 239.381262c20.41196-20.41196 51.0299-20.41196 71.441861 0l557.92691 554.524917c20.41196 20.41196 20.41196 51.0299 0 71.441861-20.41196 20.41196-51.0299 20.41196-71.441861 0l-557.92691-554.524917c-17.009967-20.41196-17.009967-51.0299 0-71.441861zM966.132093 463.912824c-30.61794 0-54.431894-23.813953-54.431894-54.431894v-428.651163h-802.870432v806.272426h428.651163c30.61794 0 54.431894 23.813953 54.431894 54.431893 0 30.61794-23.813953 54.431894-54.431894 54.431894h-483.083056c-30.61794-3.401993-54.431894-27.215947-54.431894-54.431894v-915.136212c0-30.61794 23.813953-54.431894 54.431894-54.431894h915.136212c30.61794 0 54.431894 23.813953 54.431894 54.431894v483.083056c-3.401993 30.61794-27.215947 54.431894-57.833887 54.431894z"  horiz-adv-x="1027" />

    
    <glyph glyph-name="new_congbenjixiangcexuanze" unicode="&#59447;" d="M798.72 15.36H225.28c-67.584 0-122.88 55.296-122.88 122.88V609.28c0 67.584 55.296 122.88 122.88 122.88h573.44c67.584 0 122.88-55.296 122.88-122.88v-471.04c0-67.584-55.296-122.88-122.88-122.88zM225.28 691.2c-45.056 0-81.92-36.864-81.92-81.92v-471.04c0-45.056 36.864-81.92 81.92-81.92h573.44c45.056 0 81.92 36.864 81.92 81.92V609.28c0 45.056-36.864 81.92-81.92 81.92H225.28zM348.16 424.96C303.104 424.96 266.24 461.824 266.24 506.88s36.864 81.92 81.92 81.92 81.92-36.864 81.92-81.92-36.864-81.92-81.92-81.92z m0 122.88c-22.528 0-40.96-18.432-40.96-40.96s18.432-40.96 40.96-40.96 40.96 18.432 40.96 40.96-18.432 40.96-40.96 40.96zM305.152 142.336c-6.144 0-10.24 2.048-14.336 6.144-8.192 8.192-8.192 20.48 0 28.672l176.128 169.984 161.792-100.352 247.808 278.528c8.192 8.192 20.48 10.24 28.672 2.048 8.192-8.192 8.192-20.48 2.048-28.672L636.928 195.584l-163.84 102.4-153.6-147.456c-4.096-6.144-10.24-8.192-14.336-8.192z"  horiz-adv-x="1024" />

    
    <glyph glyph-name="new_paizhao" unicode="&#59446;" d="M798.72 56.32c45.056 0 81.92 36.864 81.92 81.92V547.84c0 45.056-36.864 81.92-81.92 81.92h-69.632l-12.288 18.432L673.792 711.68H350.208L307.2 648.192l-12.288-18.432H225.28c-45.056 0-81.92-36.864-81.92-81.92v-409.6c0-45.056 36.864-81.92 81.92-81.92h573.44m0-40.96H225.28c-67.584 0-122.88 55.296-122.88 122.88V547.84c0 67.584 55.296 122.88 122.88 122.88h47.104L327.68 752.64h368.64l55.296-81.92H798.72c67.584 0 122.88-55.296 122.88-122.88v-409.6c0-67.584-55.296-122.88-122.88-122.88zM512 179.2c-102.4 0-184.32 81.92-184.32 184.32s81.92 184.32 184.32 184.32 184.32-81.92 184.32-184.32-81.92-184.32-184.32-184.32zM512 506.88C432.128 506.88 368.64 443.392 368.64 363.52s63.488-143.36 143.36-143.36 143.36 63.488 143.36 143.36-63.488 143.36-143.36 143.36zM768 506.88C751.616 506.88 737.28 521.216 737.28 537.6S751.616 568.32 768 568.32 798.72 553.984 798.72 537.6 784.384 506.88 768 506.88z m0 40.96c-6.144 0-10.24-4.096-10.24-10.24s4.096-10.24 10.24-10.24 10.24 4.096 10.24 10.24-4.096 10.24-10.24 10.24z"  horiz-adv-x="1024" />

    
    <glyph glyph-name="new_congjingpinkuzhongxuanze" unicode="&#59445;" d="M766.976 33.8944h-413.696c-67.584 0-122.88 55.296-122.88 122.88v223.232c0 67.584 55.296 122.88 122.88 122.88h411.648c67.584 0 122.88-55.296 122.88-122.88v-223.232c2.048-67.584-53.248-122.88-120.832-122.88z m-413.696 428.032c-45.056 0-81.92-36.864-81.92-81.92v-223.232c0-45.056 36.864-81.92 81.92-81.92h411.648c45.056 0 81.92 36.864 81.92 81.92v223.232c0 45.056-36.864 81.92-81.92 81.92h-411.648zM738.304 144.4864h-356.352c-22.528 0-40.96 18.432-40.96 40.96v165.888c0 22.528 18.432 40.96 40.96 40.96h356.352c22.528 0 40.96-18.432 40.96-40.96v-165.888c0-22.528-18.432-40.96-40.96-40.96z m0 206.848h-356.352v-165.888h356.352v165.888zM234.496 232.5504l-79.872 172.032c-28.672 61.44-2.048 135.168 59.392 163.84l374.784 174.08c61.44 28.672 135.168 2.048 163.84-59.392l88.064-206.848-36.864-16.384-88.064 204.8c-18.432 40.96-67.584 57.344-108.544 38.912l-374.784-172.032c-40.96-18.432-59.392-67.584-40.96-108.544l79.872-172.032-36.864-18.432zM349.184 463.9744l-16.384 36.864 284.672 129.024c20.48 10.24 45.056 0 53.248-20.48l55.296-118.784-38.912-16.384-53.248 118.784-284.672-129.024z"  horiz-adv-x="1024" />

    
    <glyph glyph-name="new_gujia" unicode="&#59434;" d="M844.8 896H179.2C79.36 896 0 816.64 0 716.8v-665.6C0-48.64 79.36-128 179.2-128h665.6c99.84 0 179.2 79.36 179.2 179.2V716.8C1024 816.64 944.64 896 844.8 896z m128-844.8c0-71.68-56.32-128-128-128H179.2c-71.68 0-128 56.32-128 128V716.8c0 71.68 56.32 128 128 128h665.6c71.68 0 128-56.32 128-128v-665.6zM376.32 258.56l-53.76-53.76-53.76 53.76-38.4-35.84 53.76-53.76-53.76-53.76 35.84-35.84L320 133.12l53.76-53.76 35.84 35.84-51.2 53.76 53.76 53.76-35.84 35.84zM281.6 486.4h51.2v76.8h76.8v51.2h-76.8v76.8h-51.2v-76.8h-76.8v-51.2h76.8v-76.8z m332.8 128h204.8v-51.2H614.4v51.2z m0-358.4h204.8v-51.2H614.4V256z m0-128h204.8v-51.2H614.4V128z"  horiz-adv-x="1024" />

    
    <glyph glyph-name="new_huodong" unicode="&#59433;" d="M102.4 238.08v-25.6H51.2v53.76h862.72L755.2 517.12c-10.24 23.04-10.24 48.64 0 71.68L913.92 847.36H102.4v-609.28zM929.28 893.44c23.04 0 40.96-15.36 43.52-38.4 0-7.68-2.56-15.36-5.12-23.04l-166.4-271.36c-2.56-7.68-2.56-15.36 0-23.04l166.4-266.24c12.8-17.92 5.12-43.52-12.8-56.32-7.68-5.12-15.36-7.68-23.04-5.12H51.2V855.04c0 20.48 17.92 38.4 38.4 38.4h839.68zM51.2-128h51.2V209.92H51.2V-128z"  horiz-adv-x="1024" />

    
    <glyph glyph-name="new_yindao" unicode="&#59432;" d="M102.4 691.2c-28.16 0-51.2-23.04-51.2-51.2v-204.8c0-28.16 23.04-51.2 51.2-51.2h650.24c20.48 12.8 58.88 43.52 99.84 74.24 58.88 43.52 89.6 71.68 107.52 87.04-17.92 15.36-48.64 38.4-107.52 79.36-40.96 28.16-79.36 53.76-99.84 66.56H102.4m0 51.2H768s256-163.84 256-197.12S768 332.8 768 332.8H102.4C46.08 332.8 0 378.88 0 435.2V640c0 56.32 46.08 102.4 102.4 102.4z m358.4-819.2c28.16 0 51.2 23.04 51.2 51.2V332.8H307.2v-358.4c0-28.16 23.04-51.2 51.2-51.2h102.4M512 742.4v51.2c0 28.16-23.04 51.2-51.2 51.2H358.4c-28.16 0-51.2-23.04-51.2-51.2v-51.2H512M460.8-128H358.4c-56.32 0-102.4 46.08-102.4 102.4V384h307.2v-409.6c0-56.32-46.08-102.4-102.4-102.4z m102.4 819.2H256V793.6C256 849.92 302.08 896 358.4 896h102.4c56.32 0 102.4-46.08 102.4-102.4v-102.4z"  horiz-adv-x="1024" />

    
    <glyph glyph-name="new_quanjing" unicode="&#59431;" d="M709.004952-74.271013h-376.099908l84.429979 122.80797c-17.908996 2.557999-33.259992 7.674998-51.169987 12.791997l-94.663977-135.599967V-128l493.789879 2.558999v51.169988l-102.339975 145.833964c-15.349996-5.116999-30.700993-12.791997-48.610988-15.349996l94.664977-130.483968z m189.328954 708.703827C806.227928 851.905761 555.493989 954.245736 338.022042 862.139758 120.549096 770.033781 18.209121 519.299842 110.315098 301.827895c43.494989-102.339975 125.366969-184.211955 227.706944-227.705944 10.233998-5.116999 20.467995-7.675998 30.701993-12.792997 15.350996-5.116999 33.259992-10.233998 51.169987-12.791997 66.520984-12.792997 135.599967-10.233998 199.562952 7.674998 15.350996 5.116999 33.259992 10.233998 48.611988 15.350996 2.557999 0 2.557999 2.558999 5.116999 2.559C888.099908 166.227928 990.439883 416.959867 898.333906 634.432814zM772.966936 199.48792c-148.392964-148.392964-388.891905-148.392964-537.284869 0-148.392964 148.392964-148.392964 388.891905 0 537.284869s388.891905 148.392964 537.284869 0c71.637983-71.637983 112.573973-168.859959 112.573973-268.641935 0-99.781976-40.93599-197.004952-112.573973-268.642934z m-268.642934 58.845986c-115.131972 0-209.796949 94.663977-209.796949 209.796948s94.664977 209.796949 209.796949 209.796949 209.797949-94.664977 209.797949-209.796949c0-115.132972-94.664977-209.796949-209.797949-209.796948z m0 370.981909c-89.546978 0-161.184961-71.637983-161.184961-161.184961s71.637983-161.185961 161.184961-161.18596S665.509963 378.582876 665.509963 468.130854s-71.637983 161.184961-161.185961 161.184961z"  horiz-adv-x="1024" />

    
    <glyph glyph-name="new_tupian" unicode="&#59430;" d="M870.4-76.8H153.6C69.12-76.8 0-7.68 0 76.8V665.6C0 750.08 69.12 819.2 153.6 819.2h716.8c84.48 0 153.6-69.12 153.6-153.6v-588.8c0-84.48-69.12-153.6-153.6-153.6zM153.6 768c-56.32 0-102.4-46.08-102.4-102.4v-588.8c0-56.32 46.08-102.4 102.4-102.4h716.8c56.32 0 102.4 46.08 102.4 102.4V665.6c0 56.32-46.08 102.4-102.4 102.4H153.6zM307.2 435.2c-56.32 0-102.4 46.08-102.4 102.4S250.88 640 307.2 640s102.4-46.08 102.4-102.4-46.08-102.4-102.4-102.4z m0 153.6c-28.16 0-51.2-23.04-51.2-51.2s23.04-51.2 51.2-51.2 51.2 23.04 51.2 51.2-23.04 51.2-51.2 51.2zM253.44 81.92c-7.68 0-12.8 2.56-17.92 7.68-10.24 10.24-10.24 25.6 0 35.84l220.16 212.48 202.24-125.44 309.76 348.16c10.24 10.24 25.6 12.8 35.84 2.56 10.24-10.24 10.24-25.6 2.56-35.84L668.16 148.48l-204.8 128-192-184.32c-5.12-7.68-12.8-10.24-17.92-10.24z"  horiz-adv-x="1024" />

    
    <glyph glyph-name="new_zhengwen" unicode="&#59429;" d="M230.4 844.8C174.08 844.8 128 798.72 128 742.4v-716.8c0-56.32 46.08-102.4 102.4-102.4h563.2c56.32 0 102.4 46.08 102.4 102.4V583.68L657.92 844.8H230.4m0 51.2h448l268.8-291.84V25.6c0-84.48-69.12-153.6-153.6-153.6H230.4c-84.48 0-153.6 69.12-153.6 153.6V742.4C76.8 826.88 145.92 896 230.4 896z m512-384H281.6c-15.36 0-25.6 10.24-25.6 25.6s10.24 25.6 25.6 25.6h460.8c15.36 0 25.6-10.24 25.6-25.6S757.76 512 742.4 512zM512 51.2c-15.36 0-25.6 10.24-25.6 25.6V537.6c0 15.36 10.24 25.6 25.6 25.6s25.6-10.24 25.6-25.6v-460.8c0-15.36-10.24-25.6-25.6-25.6z"  horiz-adv-x="1024" />

    
    <glyph glyph-name="new_biaoti" unicode="&#59428;" d="M230.4 844.8C174.08 844.8 128 798.72 128 742.4v-716.8c0-56.32 46.08-102.4 102.4-102.4h563.2c56.32 0 102.4 46.08 102.4 102.4V583.68L657.92 844.8H230.4m0 51.2h448l268.8-291.84V25.6c0-84.48-69.12-153.6-153.6-153.6H230.4c-84.48 0-153.6 69.12-153.6 153.6V742.4C76.8 826.88 145.92 896 230.4 896z m460.8-537.6H332.8c-15.36 0-25.6 10.24-25.6 25.6s10.24 25.6 25.6 25.6h358.4c15.36 0 25.6-10.24 25.6-25.6s-10.24-25.6-25.6-25.6zM332.8 128c-15.36 0-25.6 10.24-25.6 25.6V614.4c0 15.36 10.24 25.6 25.6 25.6s25.6-10.24 25.6-25.6v-460.8c0-15.36-10.24-25.6-25.6-25.6z m358.4 0c-15.36 0-25.6 10.24-25.6 25.6V614.4c0 15.36 10.24 25.6 25.6 25.6s25.6-10.24 25.6-25.6v-460.8c0-15.36-10.24-25.6-25.6-25.6z"  horiz-adv-x="1024" />

    
    <glyph glyph-name="new_tianjiafengmiantu" unicode="&#59444;" d="M1063.384615-128H118.153846c-64.984615 0-118.153846 53.169231-118.153846 118.153846V777.846154c0 64.984615 53.169231 118.153846 118.153846 118.153846h945.230769c64.984615 0 118.153846-53.169231 118.153847-118.153846v-787.692308c0-64.984615-53.169231-118.153846-118.153847-118.153846zM118.153846 856.615385C74.830769 856.615385 39.384615 821.169231 39.384615 777.846154v-787.692308c0-43.323077 35.446154-78.769231 78.769231-78.769231h945.230769c43.323077 0 78.769231 35.446154 78.769231 78.769231V777.846154c0 43.323077-35.446154 78.769231-78.769231 78.769231H118.153846zM354.461538 448.354462c-64.984615 0-118.153846 53.169231-118.153846 118.153846s53.169231 118.153846 118.153846 118.153846 118.153846-53.169231 118.153847-118.153846-53.169231-118.153846-118.153847-118.153846zM354.461538 645.277538C311.138462 645.277538 275.692308 609.831385 275.692308 566.508308s35.446154-78.769231 78.76923-78.769231 78.769231 35.446154 78.769231 78.769231-35.446154 78.769231-78.769231 78.76923zM295.384615 61.046154c-5.907692 0-9.846154 1.969231-13.784615 5.907692-7.876923 7.876923-7.876923 19.692308 0 27.569231l252.061538 240.246154L768 189.046154 1134.276923 600.615385c7.876923 7.876923 19.692308 9.846154 27.569231 1.96923 7.876923-7.876923 7.876923-19.692308 1.969231-27.56923L775.876923 139.815385l-236.307692 147.692307-230.4-220.553846c-3.938462-3.938462-9.846154-5.907692-13.784616-5.907692z"  horiz-adv-x="1181" />

    
    <glyph glyph-name="new_zuozhe" unicode="&#59443;" d="M512 895.964417C345.605782 898.524328 209.930497 762.849043 207.370586 596.454825c0-115.195997 69.117598-222.712261 174.073951-268.790659C186.891298 273.906034 51.216012 97.272172 51.216012-104.960801c0-12.799555 12.799555-23.039199 25.599111-23.039199s23.039199 10.239644 23.039199 23.039199C102.414233 120.311371 286.727828 302.065055 512 299.505144c163.834307-2.559911 302.069503 127.995552 304.629414 291.829859C819.189325 755.16931 688.633862 893.404506 524.799555 895.964417H512z m0-550.380874c-138.235196 2.559911-248.311371 117.755908-245.75146 255.991104 2.559911 138.235196 117.755908 248.311371 255.991104 245.75146 135.675285-2.559911 245.75146-115.195997 245.75146-250.871282 0-138.235196-115.195997-250.871282-255.991104-250.871282z m279.030304-92.156798c-10.239644 7.679733-25.59911 5.119822-33.278844-5.119822-7.679733-10.239644-5.119822-25.59911 5.119822-33.278843 102.396442-74.23742 161.274396-194.553239 161.274396-319.988881 0-12.799555 12.799555-23.039199 25.59911-23.039199s23.039199 10.239644 23.0392 23.039199c0 143.355018-66.557687 276.470393-181.753684 358.387546z"  horiz-adv-x="1024" />

    
    <glyph glyph-name="new_wenzhangfenlei" unicode="&#59442;" d="M330.1888 391.5008l-148.48 89.6c-12.8 7.68-28.16 2.56-33.28-7.68-7.68-12.8-2.56-28.16 7.68-35.84l148.48-89.6c12.8-7.68 28.16-2.56 33.28 7.68 7.68 12.8 2.56 28.16-7.68 35.84z m0 0l-148.48 89.6c-12.8 7.68-28.16 2.56-33.28-7.68-7.68-12.8-2.56-28.16 7.68-35.84l148.48-89.6c12.8-7.68 28.16-2.56 33.28 7.68 7.68 12.8 2.56 28.16-7.68 35.84z m0 0l-148.48 89.6c-12.8 7.68-28.16 2.56-33.28-7.68-7.68-12.8-2.56-28.16 7.68-35.84l148.48-89.6c12.8-7.68 28.16-2.56 33.28 7.68 7.68 12.8 2.56 28.16-7.68 35.84z m0 0l-148.48 89.6c-12.8 7.68-28.16 2.56-33.28-7.68-7.68-12.8-2.56-28.16 7.68-35.84l148.48-89.6c12.8-7.68 28.16-2.56 33.28 7.68 7.68 12.8 2.56 28.16-7.68 35.84z m0 0l-148.48 89.6c-12.8 7.68-28.16 2.56-33.28-7.68-7.68-12.8-2.56-28.16 7.68-35.84l148.48-89.6c12.8-7.68 28.16-2.56 33.28 7.68 7.68 12.8 2.56 28.16-7.68 35.84zM972.7488 511.8208c-12.8 0-25.6-10.24-25.6-25.6v-309.76l-424.96-238.08v440.32 5.12l432.64 243.2c12.8 7.68 15.36 23.04 10.24 33.28-2.56 5.12-5.12 7.68-10.24 10.24l-445.44 222.72c-7.68 2.56-15.36 2.56-23.04 0l-445.44-220.16c-10.24-10.24-15.36-23.04-12.8-38.4v-471.04c0-7.68 5.12-17.92 12.8-20.48l445.44-266.24c7.68-5.12 17.92-5.12 25.6 0l473.6 263.68c7.68 5.12 12.8 12.8 12.8 23.04v322.56c0 15.36-10.24 25.6-25.6 25.6z m-501.76-133.12v-437.76l-394.24 235.52v430.08l396.8-222.72-2.56-5.12z m25.6 48.64l-391.68 220.16 391.68 194.56 391.68-194.56-391.68-220.16z"  horiz-adv-x="1024" />

    
    <glyph glyph-name="new_wenzhangquanxian" unicode="&#59441;" d="M768-128H256c-84.48 0-153.6 69.12-153.6 153.6V384c0 84.48 69.12 153.6 153.6 153.6h512c84.48 0 153.6-69.12 153.6-153.6v-358.4c0-84.48-69.12-153.6-153.6-153.6zM256 486.4c-56.32 0-102.4-46.08-102.4-102.4v-358.4c0-56.32 46.08-102.4 102.4-102.4h512c56.32 0 102.4 46.08 102.4 102.4V384c0 56.32-46.08 102.4-102.4 102.4H256zM762.88 486.4H261.12c-17.92 0-30.72 12.8-30.72 30.72V614.4C230.4 770.56 355.84 896 512 896s281.6-125.44 281.6-281.6v-97.28c0-17.92-12.8-30.72-30.72-30.72zM281.6 537.6h460.8v76.8c0 128-102.4 230.4-230.4 230.4s-230.4-102.4-230.4-230.4v-76.8zM512 156.16c-15.36 0-25.6 7.68-25.6 17.92v112.64c0 10.24 10.24 17.92 25.6 17.92s25.6-7.68 25.6-17.92v-112.64c0-10.24-10.24-17.92-25.6-17.92zM512 128m-51.2 0a51.2 51.2 0 1 1 102.4 0 51.2 51.2 0 1 1-102.4 0Z"  horiz-adv-x="1024" />

    
    <glyph glyph-name="new_baojiaqicizhuankuandu" unicode="&#59440;" d="M853.333333-128H170.666667c-95.573333 0-170.666667 75.093333-170.666667 170.666667V725.333333c0 95.573333 75.093333 170.666667 170.666667 170.666667h682.666666c95.573333 0 170.666667-75.093333 170.666667-170.666667v-682.666666c0-95.573333-75.093333-170.666667-170.666667-170.666667zM170.666667 827.733333C112.64 827.733333 68.266667 783.36 68.266667 725.333333v-682.666666c0-58.026667 44.373333-102.4 102.4-102.4h682.666666c58.026667 0 102.4 44.373333 102.4 102.4V725.333333c0 58.026667-44.373333 102.4-102.4 102.4H170.666667zM631.466667 503.466667c-10.24 0-17.066667 3.413333-23.893334 10.24l-112.64 112.64-112.64-112.64c-13.653333-13.653333-34.133333-13.653333-47.786666 0s-13.653333 34.133333 0 47.786666l136.533333 136.533334c6.826667 6.826667 13.653333 10.24 23.893333 10.24 10.24 0 17.066667-3.413333 23.893334-10.24l136.533333-136.533334c13.653333-13.653333 13.653333-34.133333 0-47.786666-6.826667-6.826667-13.653333-10.24-23.893333-10.24zM494.933333 59.733333c-10.24 0-17.066667 3.413333-23.893333 10.24l-136.533333 136.533334c-13.653333 13.653333-13.653333 34.133333 0 47.786666s34.133333 13.653333 47.786666 0l112.64-112.64 112.64 112.64c13.653333 13.653333 34.133333 13.653333 47.786667 0s13.653333-34.133333 0-47.786666l-136.533333-136.533334c-6.826667-6.826667-17.066667-10.24-23.893334-10.24zM494.933333 93.866667c-20.48 0-34.133333 13.653333-34.133333 34.133333v477.866667c0 20.48 13.653333 34.133333 34.133333 34.133333s34.133333-13.653333 34.133334-34.133333v-477.866667c0-20.48-13.653333-34.133333-34.133334-34.133333z"  horiz-adv-x="1024" />

    
    <glyph glyph-name="new_baojiaqicizhuanchangdu" unicode="&#59439;" d="M853.333333-128H170.666667c-95.573333 0-170.666667 75.093333-170.666667 170.666667V725.333333c0 95.573333 75.093333 170.666667 170.666667 170.666667h682.666666c95.573333 0 170.666667-75.093333 170.666667-170.666667v-682.666666c0-95.573333-75.093333-170.666667-170.666667-170.666667zM170.666667 827.733333C112.64 827.733333 68.266667 783.36 68.266667 725.333333v-682.666666c0-58.026667 44.373333-102.4 102.4-102.4h682.666666c58.026667 0 102.4 44.373333 102.4 102.4V725.333333c0 58.026667-44.373333 102.4-102.4 102.4H170.666667zM358.4 196.266667c-10.24 0-17.066667 3.413333-23.893333 10.24l-136.533334 136.533333c-6.826667 6.826667-10.24 13.653333-10.24 23.893333s3.413333 17.066667 10.24 23.893334l136.533334 136.533333c13.653333 13.653333 34.133333 13.653333 47.786666 0s13.653333-34.133333 0-47.786667l-112.64-112.64 112.64-112.64c13.653333-13.653333 13.653333-34.133333 0-47.786666-6.826667-6.826667-13.653333-10.24-23.893333-10.24zM665.6 196.266667c-10.24 0-17.066667 3.413333-23.893333 10.24-13.653333 13.653333-13.653333 34.133333 0 47.786666l112.64 112.64-112.64 112.64c-13.653333 13.653333-13.653333 34.133333 0 47.786667s34.133333 13.653333 47.786666 0l136.533334-136.533333c6.826667-6.826667 10.24-13.653333 10.24-23.893334s-3.413333-17.066667-10.24-23.893333l-136.533334-136.533333c-6.826667-6.826667-13.653333-10.24-23.893333-10.24zM768 332.8h-477.866667c-20.48 0-34.133333 13.653333-34.133333 34.133333s13.653333 34.133333 34.133333 34.133334h477.866667c20.48 0 34.133333-13.653333 34.133333-34.133334s-13.653333-34.133333-34.133333-34.133333z"  horiz-adv-x="1024" />

    
    <glyph glyph-name="new_baojiaqicizhuanguige" unicode="&#59438;" d="M921.6 8.533333h-136.533333V759.466667h136.533333c58.026667 0 102.4-44.373333 102.4-102.4v-546.133334c0-58.026667-44.373333-102.4-102.4-102.4z m-68.266667 68.266667h68.266667c20.48 0 34.133333 13.653333 34.133333 34.133333V657.066667c0 20.48-13.653333 34.133333-34.133333 34.133333h-68.266667v-614.4zM238.933333 8.533333H102.4c-58.026667 0-102.4 44.373333-102.4 102.4V657.066667c0 58.026667 44.373333 102.4 102.4 102.4h136.533333v-750.933334zM102.4 691.2c-20.48 0-34.133333-13.653333-34.133333-34.133333v-546.133334c0-20.48 13.653333-34.133333 34.133333-34.133333h68.266667V691.2H102.4zM750.933333-128H273.066667c-58.026667 0-102.4 44.373333-102.4 102.4V793.6c0 58.026667 44.373333 102.4 102.4 102.4h477.866666c58.026667 0 102.4-44.373333 102.4-102.4v-819.2c0-58.026667-44.373333-102.4-102.4-102.4zM273.066667 827.733333c-20.48 0-34.133333-13.653333-34.133334-34.133333v-819.2c0-20.48 13.653333-34.133333 34.133334-34.133333h477.866666c20.48 0 34.133333 13.653333 34.133334 34.133333V793.6c0 20.48-13.653333 34.133333-34.133334 34.133333H273.066667zM631.466667 503.466667h-238.933334c-20.48 0-34.133333 13.653333-34.133333 34.133333s13.653333 34.133333 34.133333 34.133333h238.933334c20.48 0 34.133333-13.653333 34.133333-34.133333s-13.653333-34.133333-34.133333-34.133333zM631.466667 230.4h-238.933334c-20.48 0-34.133333 13.653333-34.133333 34.133333s13.653333 34.133333 34.133333 34.133334h238.933334c20.48 0 34.133333-13.653333 34.133333-34.133334s-13.653333-34.133333-34.133333-34.133333z"  horiz-adv-x="1024" />

    
    <glyph glyph-name="new_baojiaqishoujihao" unicode="&#59437;" d="M716.8-128H290.133333c-95.573333 0-170.666667 75.093333-170.666666 170.666667v682.666666c0 95.573333 75.093333 170.666667 170.666666 170.666667H716.8c95.573333 0 170.666667-75.093333 170.666667-170.666667v-682.666666c0-95.573333-75.093333-170.666667-170.666667-170.666667z m-426.666667 955.733333c-58.026667 0-102.4-44.373333-102.4-102.4v-682.666666c0-58.026667 44.373333-102.4 102.4-102.4H716.8c58.026667 0 102.4 44.373333 102.4 102.4v682.666666c0 58.026667-44.373333 102.4-102.4 102.4H290.133333zM136.533333 162.133333h716.8v-68.266666H136.533333zM494.933333 25.6m-51.2 0a51.2 51.2 0 1 1 102.4 0 51.2 51.2 0 1 1-102.4 0Z"  horiz-adv-x="1024" />

    
    <glyph glyph-name="new_baojiaqimianji" unicode="&#59436;" d="M750.933333-93.866667H170.666667c-95.573333 0-170.666667 75.093333-170.666667 170.666667V657.066667c0 95.573333 75.093333 170.666667 170.666667 170.666666h242.346666c20.48 0 34.133333-13.653333 34.133334-34.133333s-13.653333-34.133333-34.133334-34.133333H170.666667C112.64 759.466667 68.266667 715.093333 68.266667 657.066667v-580.266667c0-58.026667 44.373333-102.4 102.4-102.4h580.266666c58.026667 0 102.4 44.373333 102.4 102.4v225.28c0 20.48 13.653333 34.133333 34.133334 34.133333s34.133333-13.653333 34.133333-34.133333V76.8c0-95.573333-75.093333-170.666667-170.666667-170.666667zM136.533333 537.6h98.986667v-54.613333c30.72 37.546667 78.506667 61.44 126.293333 61.44 23.893333 0 47.786667-3.413333 68.266667-17.066667 20.48-10.24 37.546667-27.306667 47.786667-47.786667 17.066667 20.48 34.133333 34.133333 58.026666 47.786667 20.48 10.24 44.373333 17.066667 64.853334 17.066667 27.306667 0 51.2-6.826667 75.093333-17.066667 20.48-10.24 37.546667-30.72 47.786667-51.2 10.24-27.306667 13.653333-54.613333 10.24-81.92V145.066667h-105.813334v221.866666c3.413333 23.893333 0 51.2-10.24 75.093334-10.24 13.653333-27.306667 23.893333-44.373333 20.48-13.653333 0-30.72-3.413333-40.96-13.653334-13.653333-10.24-23.893333-23.893333-27.306667-37.546666-6.826667-27.306667-10.24-54.613333-10.24-81.92v-187.733334h-105.813333v215.04c0 23.893333 0 47.786667-6.826667 75.093334-3.413333 10.24-10.24 17.066667-17.066666 23.893333-10.24 6.826667-20.48 10.24-34.133334 6.826667-17.066667 0-30.72-3.413333-44.373333-13.653334-13.653333-10.24-23.893333-20.48-27.306667-37.546666-6.826667-27.306667-10.24-54.613333-10.24-81.92v-191.146667H136.533333V537.6z m887.466667-68.266667v-58.026666h-232.106667c3.413333 20.48 10.24 37.546667 20.48 54.613333 20.48 27.306667 47.786667 47.786667 75.093334 68.266667 17.066667 13.653333 37.546667 27.306667 51.2 44.373333 6.826667 6.826667 10.24 17.066667 10.24 27.306667 0 6.826667-3.413333 17.066667-10.24 20.48-6.826667 6.826667-17.066667 10.24-27.306667 6.826666-10.24 0-20.48-3.413333-27.306667-10.24-6.826667-10.24-10.24-20.48-10.24-34.133333l-71.68 6.826667c0 23.893333 10.24 47.786667 27.306667 61.44 23.893333 20.48 54.613333 27.306667 85.333333 27.306666 27.306667 3.413333 58.026667-6.826667 81.92-23.893333 17.066667-13.653333 27.306667-34.133333 27.306667-54.613333 0-13.653333-3.413333-27.306667-10.24-37.546667-6.826667-13.653333-17.066667-27.306667-27.306667-37.546667-6.826667-6.826667-23.893333-20.48-51.2-40.96-13.653333-10.24-23.893333-20.48-30.72-23.893333l119.466667 3.413333z"  horiz-adv-x="1024" />

    
    <glyph glyph-name="new_baojiaqizhuangxiudangci" unicode="&#59435;" d="M499.156679-127.558298c-152.896675 0-428.110691 322.78187-428.110691 462.087729 0 115.521932 3.397704 390.735948 3.397704 390.735948 0 10.193112 3.397704 16.988519 10.193112 23.783928 6.795408 6.795408 16.988519 10.193112 23.783927 10.193111 67.954078 0 139.30586 6.795408 203.862234 30.579335 61.15867 23.783927 122.31734 57.760966 176.680603 98.533413 10.193112 10.193112 27.181631 10.193112 40.772446 0 54.363262-37.374743 112.124229-67.954078 169.885195-88.340301 67.954078-23.783927 142.703564-40.772447 217.453049-47.567855 6.795408 0 16.988519-3.397704 23.783928-10.193111 13.590816-13.590816 16.988519-16.988519 10.193111-268.418608 0-54.363262-3.397704-101.931117-3.397704-135.908156 0-135.908156-298.997943-465.485434-448.496914-465.485433z m-360.156613 815.448934c0-78.14719-3.397704-265.020904-3.397704-356.758909 0-101.931117 251.430088-394.133652 360.156613-394.133651 108.726525 0 383.94054 298.997943 383.940541 394.133651 0 33.977039 0 84.942597 3.397703 139.30586 0 67.954078 3.397704 166.487491 3.397704 210.657642-71.351782 6.795408-142.703564 23.783927-210.657641 47.567854-57.760966 23.783927-112.124229 50.965558-166.487491 84.942598-54.363262-40.772447-112.124229-71.351782-176.680603-95.13571-61.15867-16.988519-125.715044-27.181631-193.669122-30.579335z m771.278785-6.795407h0zM502.554383 205.416683c-10.193112 0-23.783927 6.795408-27.181631 16.98852l-173.282899 271.816311c-10.193112 16.988519-6.795408 37.374743 10.193112 47.567855 16.988519 10.193112 37.374743 6.795408 47.567855-10.193112l142.703563-224.248457 139.30586 224.248457c10.193112 16.988519 30.579335 20.386223 47.567854 10.193112 16.988519-10.193112 20.386223-30.579335 10.193112-47.567855l-166.487491-271.816311c-6.795408-13.590816-16.988519-16.988519-30.579335-16.98852z"  horiz-adv-x="1024" />

    
    <glyph glyph-name="new_tuiwenguanlishanchu" unicode="&#59427;" d="M654.222222 554.666667H369.777778c-31.288889 0-56.888889 25.6-56.888889 56.888889V640c0 62.577778 51.2 113.777778 113.777778 113.777778h170.666666c62.577778 0 113.777778-51.2 113.777778-113.777778v-28.444444c0-31.288889-25.6-56.888889-56.888889-56.888889z m-227.555555 142.222222c-31.288889 0-56.888889-25.6-56.888889-56.888889v-28.444444h284.444444V640c0 31.288889-25.6 56.888889-56.888889 56.888889h-170.666666zM711.111111-14.222222H312.888889c-62.577778 0-113.777778 51.2-113.777778 113.777778V554.666667c0 31.288889 25.6 56.888889 56.888889 56.888889h512c31.288889 0 56.888889-25.6 56.888889-56.888889v-455.111111c0-62.577778-51.2-113.777778-113.777778-113.777778zM256 554.666667v-455.111111c0-31.288889 25.6-56.888889 56.888889-56.888889h398.222222c31.288889 0 56.888889 25.6 56.888889 56.888889V554.666667H256zM880.469333 556.060444h-739.555555c-17.066667 0-28.444444 11.377778-28.444445 28.444445s11.377778 28.444444 28.444445 28.444444h739.555555c17.066667 0 28.444444-11.377778 28.444445-28.444444s-11.377778-28.444444-28.444445-28.444445zM425.358222 157.838222c-17.066667 0-28.444444 11.377778-28.444444 28.444445v227.555555c0 17.066667 11.377778 28.444444 28.444444 28.444445s28.444444-11.377778 28.444445-28.444445v-227.555555c0-17.066667-11.377778-28.444444-28.444445-28.444445zM624.469333 157.838222c-17.066667 0-28.444444 11.377778-28.444444 28.444445v227.555555c0 17.066667 11.377778 28.444444 28.444444 28.444445s28.444444-11.377778 28.444445-28.444445v-227.555555c0-17.066667-11.377778-28.444444-28.444445-28.444445z"  horiz-adv-x="1024" />

    
    <glyph glyph-name="new_tuiwenguanlibianji" unicode="&#59426;" d="M711.111111 14.222222H312.888889c-93.866667 0-170.666667 76.8-170.666667 170.666667V583.111111c0 93.866667 76.8 170.666667 170.666667 170.666667h199.111111c17.066667 0 28.444444-11.377778 28.444444-28.444445s-11.377778-28.444444-28.444444-28.444444h-199.111111c-62.577778 0-113.777778-51.2-113.777778-113.777778v-398.222222c0-62.577778 51.2-113.777778 113.777778-113.777778h398.222222c62.577778 0 113.777778 51.2 113.777778 113.777778v224.711111c0 17.066667 11.377778 28.444444 28.444444 28.444444s28.444444-11.377778 28.444445-28.444444V184.888889c0-93.866667-76.8-170.666667-170.666667-170.666667zM438.044444 258.844444c-8.533333 0-14.222222 2.844444-19.911111 8.533334-11.377778 11.377778-11.377778 28.444444 0 39.822222l395.377778 369.777778c11.377778 11.377778 28.444444 11.377778 39.822222 0 11.377778-11.377778 11.377778-28.444444 0-39.822222l-395.377777-369.777778c-5.688889-5.688889-11.377778-8.533333-19.911112-8.533334z"  horiz-adv-x="1024" />

    
    <glyph glyph-name="new_tuiwenguanlichakan" unicode="&#59425;" d="M512.625778 751.274667v-54.044445c-31.288889 0-62.577778-2.844444-93.866667-11.377778-31.288889-8.533333-59.733333-17.066667-82.488889-28.444444-25.6-11.377778-51.2-28.444444-73.955555-45.511111-25.6-17.066667-45.511111-34.133333-62.577778-54.044445-19.911111-17.066667-36.977778-36.977778-54.044445-56.888888-17.066667-19.911111-31.288889-39.822222-42.666666-54.044445s-19.911111-31.288889-28.444445-45.511111c-5.688889-8.533333-8.533333-14.222222-11.377777-17.066667 5.688889-8.533333 11.377778-22.755556 25.6-39.822222 14.222222-19.911111 31.288889-42.666667 51.2-68.266667 17.066667-22.755556 39.822222-45.511111 65.422222-71.111111 25.6-22.755556 56.888889-45.511111 85.333333-65.422222s62.577778-34.133333 102.4-45.511111c36.977778-11.377778 76.8-17.066667 119.466667-17.066667 31.288889 0 62.577778 2.844444 93.866666 11.377778 31.288889 8.533333 59.733333 17.066667 82.488889 28.444445 25.6 11.377778 48.355556 25.6 73.955556 45.511111 25.6 17.066667 45.511111 34.133333 62.577778 51.2 19.911111 17.066667 36.977778 36.977778 54.044444 56.888889 17.066667 19.911111 31.288889 39.822222 39.822222 54.044444 11.377778 14.222222 19.911111 31.288889 28.444445 45.511111 5.688889 8.533333 8.533333 14.222222 11.377778 17.066667-5.688889 11.377778-14.222222 25.6-25.6 39.822222-14.222222 19.911111-31.288889 42.666667-51.2 68.266667-17.066667 22.755556-39.822222 48.355556-65.422223 71.111111-25.6 25.6-56.888889 45.511111-85.333333 65.422222s-62.577778 34.133333-102.4 45.511111c-36.977778 11.377778-76.8 17.066667-119.466667 17.066667l2.844445 56.888889m0 2.844444c45.511111 0 91.022222-5.688889 136.533333-19.911111 42.666667-14.222222 82.488889-31.288889 116.622222-54.044444 34.133333-22.755556 65.422222-45.511111 93.866667-71.111112s54.044444-54.044444 73.955556-79.644444c19.911111-25.6 36.977778-51.2 51.2-71.111111 14.222222-22.755556 25.6-39.822222 31.288888-54.044445l11.377778-19.911111c-2.844444-2.844444-2.844444-8.533333-5.688889-14.222222s-8.533333-17.066667-19.911111-34.133333c-11.377778-17.066667-19.911111-34.133333-31.288889-48.355556-11.377778-17.066667-25.6-36.977778-45.511111-56.888889-17.066667-22.755556-36.977778-42.666667-56.888889-62.577777s-42.666667-39.822222-68.266666-56.888889c-25.6-19.911111-54.044444-36.977778-82.488889-48.355556-28.444444-14.222222-59.733333-25.6-93.866667-34.133333s-71.111111-14.222222-108.088889-14.222222c-45.511111 0-91.022222 5.688889-136.533333 19.911111-42.666667 14.222222-82.488889 31.288889-116.622222 54.044444-34.133333 22.755556-65.422222 45.511111-93.866667 71.111111s-54.044444 51.2-73.955556 79.644445c-19.911111 25.6-36.977778 51.2-51.2 71.111111-14.222222 22.755556-25.6 39.822222-31.288888 54.044444l-11.377778 19.911111c2.844444 2.844444 2.844444 8.533333 5.688889 14.222223s8.533333 17.066667 19.911111 34.133333c11.377778 17.066667 19.911111 34.133333 31.288889 51.2 11.377778 17.066667 25.6 36.977778 45.511111 56.888889 17.066667 22.755556 36.977778 42.666667 56.888889 62.577778s42.666667 39.822222 68.266666 56.888888c25.6 19.911111 54.044444 36.977778 82.488889 51.2s59.733333 25.6 93.866667 34.133334c34.133333 2.844444 71.111111 8.533333 108.088889 8.533333zM512 187.733333c-51.2 0-102.4 19.911111-142.222222 56.888889-36.977778 34.133333-56.888889 82.488889-59.733334 133.688889 0 51.2 17.066667 99.555556 51.2 136.533333l8.533334 8.533334c36.977778 36.977778 88.177778 56.888889 142.222222 56.888889s105.244444-19.911111 142.222222-56.888889c36.977778-34.133333 56.888889-82.488889 59.733334-133.688889s-17.066667-99.555556-51.2-136.533333l-8.533334-8.533334c-39.822222-36.977778-91.022222-56.888889-142.222222-56.888889z m-2.844444 335.644445c-36.977778 0-73.955556-14.222222-99.555556-39.822222l-5.688889-5.688889c-51.2-54.044444-48.355556-139.377778 5.688889-190.577778 56.888889-54.044444 147.911111-54.044444 207.644444 0l5.688889 5.688889c25.6 25.6 36.977778 59.733333 36.977778 96.711111s-17.066667 68.266667-42.666667 93.866667c-28.444444 28.444444-65.422222 42.666667-102.4 42.666666l-5.688888-2.844444c2.844444 0 0 0 0 0z"  horiz-adv-x="1027" />

    
    <glyph glyph-name="new_huifu" unicode="&#59423;" d="M487.907556 552.049778h8.192V714.496c0 61.411556 36.977778 87.182222 79.957333 51.512889l414.122667-322.929778a74.467556 74.467556 0 0 0 0-124.814222L580.266667-0.682667c-45.112889-33.678222-84.053333 0-84.053334 51.512889v172.344889h-61.610666c-180.394667 0-317.752889-75.292444-399.758223-219.904-16.412444-25.742222-34.844444-19.911111-34.844444 0 2.048 257.536 227.555556 548.750222 487.907556 548.750222z m0 0"  horiz-adv-x="1024" />

    
    <glyph glyph-name="new_chexiao" unicode="&#59424;" d="M536.365796 552.049778h-8.192V714.496c0 61.411556-36.977778 87.182222-79.957334 51.512889L34.093796 443.079111a74.467556 74.467556 0 0 1 0-124.814222L444.006684-0.682667c45.112889-33.678222 84.053333 0 84.053334 51.512889v172.344889h61.496889c180.394667 0 317.752889-75.292444 399.758222-219.904 16.412444-25.742222 34.844444-19.911111 34.844444 0-2.048 257.536-227.555556 548.750222-487.907555 548.750222z m0 0"  horiz-adv-x="1024" />

    
    <glyph glyph-name="new_tuichuwenzhangbianji" unicode="&#59422;" d="M793.6 76.8c-7.68 0-12.8 2.56-17.92 7.68l-563.2 563.2c-10.24 10.24-10.24 25.6 0 35.84s25.6 10.24 35.84 0l563.2-563.2c10.24-10.24 10.24-25.6 0-35.84-5.12-5.12-10.24-7.68-17.92-7.68zM230.4 76.8c-7.68 0-12.8 2.56-17.92 7.68-10.24 10.24-10.24 25.6 0 35.84l563.2 563.2c10.24 10.24 25.6 10.24 35.84 0s10.24-25.6 0-35.84l-563.2-563.2c-5.12-5.12-10.24-7.68-17.92-7.68z"  horiz-adv-x="1024" />

    
    <glyph glyph-name="new_tuiwenguanlituichusousuo" unicode="&#59421;" d="M793.6 51.2c-12.8 0-25.6 5.12-35.84 15.36l-563.2 563.2c-20.48 20.48-20.48 51.2 0 71.68s51.2 20.48 71.68 0l563.2-563.2c20.48-20.48 20.48-51.2 0-71.68-10.24-10.24-23.04-15.36-35.84-15.36zM230.4 51.2c-12.8 0-25.6 5.12-35.84 15.36-20.48 20.48-20.48 51.2 0 71.68l563.2 563.2c20.48 20.48 51.2 20.48 71.68 0s20.48-51.2 0-71.68l-563.2-563.2c-10.24-10.24-23.04-15.36-35.84-15.36z"  horiz-adv-x="1024" />

    
    <glyph glyph-name="new_yichu" unicode="&#59420;" d="M512 896a512 512 0 0 0 0-1024A518.314667 518.314667 0 0 0 0 384 518.314667 518.314667 0 0 0 512 896zM292.5568 457.147733A69.12 69.12 0 0 1 219.4432 384a69.12 69.12 0 0 1 73.147733-73.147733h438.852267A69.12 69.12 0 0 1 804.5568 384a69.12 69.12 0 0 1-73.147733 73.147733z"  horiz-adv-x="1024" />

    
    <glyph glyph-name="new_fanhuidingbu" unicode="&#59419;" d="M959.726933 674.133333h-887.466666c-27.306667 0-51.2 23.893333-51.2 51.2s23.893333 51.2 51.2 51.2h887.466666c27.306667 0 51.2-23.893333 51.2-51.2s-23.893333-51.2-51.2-51.2zM72.260267-8.533333c-13.653333 0-27.306667 6.826667-37.546667 17.066666-20.48 20.48-17.066667 54.613333 3.413333 71.68l457.386667 409.6c20.48 17.066667 51.2 17.066667 68.266667 0l430.08-409.6c20.48-20.48 20.48-51.2 3.413333-71.68-20.48-20.48-51.2-20.48-71.68-3.413333l-395.946667 375.466667-419.84-378.88c-13.653333-6.826667-23.893333-10.24-37.546666-10.24z"  horiz-adv-x="1030" />

    
    <glyph glyph-name="new_yishoucang1" unicode="&#59418;" d="M828.501333-99.555556l-316.444444 127.118223-316.444445-127.260445 9.244445 344.035556-204.8 253.667555 322.133333 96.995556 189.923556 272.440889 190.008889-272.440889 321.934222-96.995556-204.8-253.667555 9.301333-344.035556z"  horiz-adv-x="1024" />

    
    <glyph glyph-name="new_shoucang1" unicode="&#59417;" d="M302.165333 53.162667l171.491556 69.006222 38.4 15.416889 38.4-15.416889 171.52-68.949333-5.12 188.558222-1.024 37.347555 23.523555 29.098667 109.966223 136.248889-176.924445 53.276444-34.133333 10.268445-20.309333 29.127111-105.841778 151.751111-105.756445-151.751111-20.309333-29.127111-34.133333-10.268445-177.066667-53.333333 109.966222-136.192 23.523556-29.098667L307.313778 241.777778l-5.034667-188.615111m526.222222-152.632889l-316.444444 127.032889-316.444445-127.260445 9.244445 344.035556-204.8 253.667555 322.133333 96.995556 189.923556 272.440889 190.008889-272.440889 321.934222-96.995556-204.8-253.667555 9.301333-344.035556z"  horiz-adv-x="1024" />

    
    <glyph glyph-name="new_tianjiahui" unicode="&#59416;" d="M512 384m-512 0a512 512 0 1 1 1024 0 512 512 0 1 1-1024 0ZM768 337.454545h-512c-25.6 0-46.545455 20.945455-46.545455 46.545455s20.945455 46.545455 46.545455 46.545455h512c25.6 0 46.545455-20.945455 46.545455-46.545455s-20.945455-46.545455-46.545455-46.545455zM512 81.454545c-25.6 0-46.545455 20.945455-46.545455 46.545455v512c0 25.6 20.945455 46.545455 46.545455 46.545455s46.545455-20.945455 46.545455-46.545455v-512c0-25.6-20.945455-46.545455-46.545455-46.545455z"  horiz-adv-x="1024" />

    
    <glyph glyph-name="new_tianjiahong" unicode="&#59415;" d="M512 384m-512 0a512 512 0 1 1 1024 0 512 512 0 1 1-1024 0ZM768 337.454545h-512c-25.6 0-46.545455 20.945455-46.545455 46.545455s20.945455 46.545455 46.545455 46.545455h512c25.6 0 46.545455-20.945455 46.545455-46.545455s-20.945455-46.545455-46.545455-46.545455zM512 81.454545c-25.6 0-46.545455 20.945455-46.545455 46.545455v512c0 25.6 20.945455 46.545455 46.545455 46.545455s46.545455-20.945455 46.545455-46.545455v-512c0-25.6-20.945455-46.545455-46.545455-46.545455z"  horiz-adv-x="1024" />

    
    <glyph glyph-name="new_tianjiabai" unicode="&#59414;" d="M512 384m-512 0a512 512 0 1 1 1024 0 512 512 0 1 1-1024 0ZM512-128C230.4-128 0 102.4 0 384S230.4 896 512 896s512-230.4 512-512-230.4-512-512-512z m0 1000.727273C242.036364 872.727273 23.272727 653.963636 23.272727 384s218.763636-488.727273 488.727273-488.727273 488.727273 218.763636 488.727273 488.727273S781.963636 872.727273 512 872.727273zM768 337.454545H256c-25.6 0-46.545455 20.945455-46.545455 46.545455s20.945455 46.545455 46.545455 46.545455h512c25.6 0 46.545455-20.945455 46.545455-46.545455s-20.945455-46.545455-46.545455-46.545455zM512 81.454545c-25.6 0-46.545455 20.945455-46.545455 46.545455V640c0 25.6 20.945455 46.545455 46.545455 46.545455s46.545455-20.945455 46.545455-46.545455v-512c0-25.6-20.945455-46.545455-46.545455-46.545455z"  horiz-adv-x="1024" />

    
    <glyph glyph-name="new_fuxuankuangyixuanzhong" unicode="&#59413;" d="M0 896m204.8 0l614.4 0q204.8 0 204.8-204.8l0-614.4q0-204.8-204.8-204.8l-614.4 0q-204.8 0-204.8 204.8l0 614.4q0 204.8 204.8 204.8ZM486.2208 328.6528l220.3136 220.16a51.328 51.328 0 0 0 72.576-72.6272l-256.5888-256.3072a51.3792 51.3792 0 0 0-72.576 0l-153.9584 153.9072a51.3024 51.3024 0 0 0 72.6528 72.4736z"  horiz-adv-x="1024" />

    
    <glyph glyph-name="new_fuxuankuangweixuanzhong" unicode="&#59412;" d="M204.8 896h614.4c112.64 0 204.8-92.16 204.8-204.8v-614.4c0-112.64-92.16-204.8-204.8-204.8H204.8c-112.64 0-204.8 92.16-204.8 204.8V691.2c0 112.64 92.16 204.8 204.8 204.8zM819.2-128H204.8c-112.64 0-204.8 92.16-204.8 204.8V691.2c0 112.64 92.16 204.8 204.8 204.8h614.4c112.64 0 204.8-92.16 204.8-204.8v-614.4c0-112.64-92.16-204.8-204.8-204.8zM204.8 844.8C120.32 844.8 51.2 775.68 51.2 691.2v-614.4c0-84.48 69.12-153.6 153.6-153.6h614.4c84.48 0 153.6 69.12 153.6 153.6V691.2c0 84.48-69.12 153.6-153.6 153.6H204.8z"  horiz-adv-x="1024" />

    
    <glyph glyph-name="new_shezhifenlei" unicode="&#59411;" d="M0 896.034133h1024v-1024H0zM921.6 520.533333c0 47.786667-27.306667 95.573333-71.68 119.466667l-256 143.36c-40.96 23.893333-92.16 23.893333-133.12 0L204.8 640c-44.373333-23.893333-71.68-68.266667-71.68-119.466667v-273.066666c0-51.2 27.306667-95.573333 71.68-119.466667l256-143.36c40.96-23.893333 92.16-23.893333 133.12 0l256 143.36c44.373333 23.893333 71.68 71.68 71.68 119.466667v273.066666m68.266667 0v-273.066666c0-75.093333-40.96-143.36-105.813334-177.493334l-256-143.36c-61.44-34.133333-136.533333-34.133333-197.973333 0l-256 143.36C109.226667 104.106667 68.266667 175.786667 68.266667 247.466667v273.066666c0 75.093333 40.96 143.36 105.813333 177.493334l256 143.36c61.44 34.133333 136.533333 34.133333 197.973333 0l256-143.36c64.853333-34.133333 105.813333-105.813333 105.813334-177.493334zM527.633067 186.0608c-27.306667 0-54.613333 6.826667-81.92 20.48-44.373333 20.48-78.506667 61.44-95.573334 109.226667-17.066667 47.786667-13.653333 98.986667 10.24 143.36 20.48 44.373333 61.44 78.506667 109.226667 95.573333 98.986667 34.133333 204.8-17.066667 238.933333-116.053333 17.066667-44.373333 13.653333-92.16-6.826666-136.533334-6.826667-17.066667-27.306667-23.893333-44.373334-17.066666-17.066667 6.826667-23.893333 27.306667-17.066666 44.373333 13.653333 27.306667 13.653333 58.026667 3.413333 85.333333-20.48 61.44-88.746667 95.573333-153.6 75.093334-30.72-10.24-54.613333-30.72-68.266667-61.44-13.653333-27.306667-17.066667-61.44-6.826666-92.16 10.24-30.72 30.72-54.613333 61.44-68.266667 27.306667-13.653333 61.44-17.066667 92.16-6.826667 17.066667 6.826667 37.546667-3.413333 44.373333-20.48 6.826667-17.066667-3.413333-37.546667-20.48-44.373333-23.893333-6.826667-44.373333-10.24-64.853333-10.24z"  horiz-adv-x="1024" />

    
    <glyph glyph-name="new_shezhiyongjin" unicode="&#59410;" d="M0 896h1024v-1024H0zM519.9872-94.9248h-334.506667c-81.92 0-150.186667 68.266667-150.186666 150.186667v655.36c0 81.92 68.266667 150.186667 150.186666 150.186666h651.946667c81.92 0 150.186667-68.266667 150.186667-150.186666v-337.92c0-20.48-13.653333-34.133333-34.133334-34.133334s-34.133333 13.653333-34.133333 34.133334v337.92c0 44.373333-37.546667 81.92-81.92 81.92h-655.36c-44.373333 0-81.92-37.546667-81.92-81.92v-655.36c0-44.373333 37.546667-81.92 81.92-81.92h334.506667c20.48 0 34.133333-13.653333 34.133333-34.133334s-10.24-34.133333-30.72-34.133333zM519.9872 348.808533c-133.12 0-242.346667 88.746667-242.346667 194.56v85.333334c0 20.48 13.653333 34.133333 34.133334 34.133333s34.133333-13.653333 34.133333-34.133333v-85.333334c0-68.266667 78.506667-126.293333 174.08-126.293333s174.08 58.026667 174.08 126.293333v85.333334c0 20.48 13.653333 34.133333 34.133333 34.133333s34.133333-13.653333 34.133334-34.133333v-85.333334c0-105.813333-109.226667-194.56-242.346667-194.56zM291.293867 632.1152m-68.266667 0a68.266667 68.266667 0 1 1 136.533333 0 68.266667 68.266667 0 1 1-136.533333 0ZM735.0272 632.1152m-68.266667 0a68.266667 68.266667 0 1 1 136.533334 0 68.266667 68.266667 0 1 1-136.533334 0ZM903.406933 22.289067h-269.653333c-20.48 0-34.133333 13.653333-34.133333 34.133333s13.653333 34.133333 34.133333 34.133333h269.653333c20.48 0 34.133333-13.653333 34.133334-34.133333s-13.653333-34.133333-34.133334-34.133333zM903.406933 141.755733h-269.653333c-20.48 0-34.133333 13.653333-34.133333 34.133334s13.653333 34.133333 34.133333 34.133333h269.653333c20.48 0 34.133333-13.653333 34.133334-34.133333s-13.653333-34.133333-34.133334-34.133334zM770.286933-100.590933c-20.48 0-34.133333 13.653333-34.133333 34.133333v269.653333c0 20.48 13.653333 34.133333 34.133333 34.133334s34.133333-13.653333 34.133334-34.133334v-269.653333c0-17.066667-17.066667-34.133333-34.133334-34.133333zM798.344533 145.169067c-10.24 0-17.066667 3.413333-23.893333 10.24l-119.466667 119.466666c-13.653333 13.653333-13.653333 34.133333 0 47.786667s34.133333 13.653333 47.786667 0l119.466667-119.466667c13.653333-13.653333 13.653333-34.133333 0-47.786666-6.826667-6.826667-17.066667-10.24-23.893334-10.24zM740.317867 145.169067c-10.24 0-17.066667 3.413333-23.893334 10.24-13.653333 13.653333-13.653333 34.133333 0 47.786666l119.466667 119.466667c13.653333 13.653333 34.133333 13.653333 47.786667 0s13.653333-34.133333 0-47.786667l-119.466667-119.466666c-6.826667-6.826667-13.653333-10.24-23.893333-10.24z"  horiz-adv-x="1024" />

    
    <glyph glyph-name="new_fenxiang1" unicode="&#59409;" d="M0 896h1024v-1024H0V896zM832.853333-93.866667H191.146667C105.813333-93.866667 34.133333-22.186667 34.133333 63.146667V704.853333C34.133333 790.186667 105.813333 861.866667 191.146667 861.866667h194.56c20.48 0 34.133333-13.653333 34.133333-34.133334s-13.653333-34.133333-34.133333-34.133333H191.146667C143.36 793.6 102.4 752.64 102.4 704.853333v-641.706666C102.4 15.36 143.36-25.6 191.146667-25.6h641.706666c47.786667 0 88.746667 40.96 88.746667 88.746667v283.306666c0 20.48 13.653333 34.133333 34.133333 34.133334s34.133333-13.653333 34.133334-34.133334v-283.306666c0-85.333333-71.68-157.013333-157.013334-157.013334zM354.986667 90.453333c-17.066667 0-34.133333 13.653333-34.133334 34.133334 0 160.426667 61.44 310.613333 174.08 426.666666 112.64 112.64 262.826667 177.493333 423.253334 177.493334h17.066666c20.48 0 34.133333-17.066667 34.133334-34.133334 0-20.48-17.066667-34.133333-34.133334-34.133333h-17.066666c-143.36 0-276.48-58.026667-375.466667-157.013333-98.986667-102.4-153.6-235.52-153.6-375.466667 0-20.48-13.653333-37.546667-34.133333-37.546667zM771.413333 479.573333c-6.826667 0-17.066667 3.413333-23.893333 10.24-13.653333 13.653333-13.653333 34.133333-3.413333 47.786667l139.946666 150.186667L727.04 759.466667c-17.066667 6.826667-23.893333 27.306667-17.066667 44.373333 6.826667 17.066667 27.306667 23.893333 44.373334 17.066667L955.733333 732.16c10.24-3.413333 17.066667-13.653333 20.48-23.893333 3.413333-10.24 0-20.48-6.826666-30.72l-170.666667-184.32c-6.826667-10.24-17.066667-13.653333-27.306667-13.653334z"  horiz-adv-x="1024" />

    
    <glyph glyph-name="new_weidian" unicode="&#59408;" d="M0 896h1024v-1024H0zM921.6-107.52H675.84c-45.056 0-81.92 36.864-81.92 81.92V220.16c0 45.056 36.864 81.92 81.92 81.92h245.76c45.056 0 81.92-36.864 81.92-81.92v-245.76c0-45.056-36.864-81.92-81.92-81.92zM675.84 261.12c-22.528 0-40.96-18.432-40.96-40.96v-245.76c0-22.528 18.432-40.96 40.96-40.96h245.76c22.528 0 40.96 18.432 40.96 40.96V220.16c0 22.528-18.432 40.96-40.96 40.96H675.84zM808.96 56.32c-57.344 0-102.4 45.056-102.4 102.4 0 12.288 8.192 20.48 20.48 20.48s20.48-8.192 20.48-20.48c0-34.816 26.624-61.44 61.44-61.44s61.44 26.624 61.44 61.44c0 12.288 8.192 20.48 20.48 20.48s20.48-8.192 20.48-20.48c0-57.344-45.056-102.4-102.4-102.4zM266.24-107.52c-49.152 0-94.208 18.432-129.024 53.248C102.4-19.456 83.968 27.648 81.92 76.8V322.56h40.96v-245.76c0-38.912 14.336-73.728 43.008-100.352s63.488-43.008 102.4-40.96h245.76v-40.96H266.24v-2.048zM847.872 384c-61.44 0-116.736 36.864-141.312 92.16-14.336 30.72-38.912 30.72-53.248 0-16.384-36.864-47.104-65.536-86.016-81.92-38.912-14.336-79.872-14.336-118.784 2.048-2.048 0-4.096 2.048-6.144 2.048-28.672 14.336-53.248 36.864-67.584 67.584v2.048c-4.096 12.288-16.384 20.48-28.672 22.528-14.336-2.048-26.624-10.24-30.72-22.528v-2.048c-18.432-36.864-51.2-63.488-90.112-73.728-38.912-12.288-79.872-8.192-116.736 12.288-2.048 2.048-4.096 2.048-6.144 4.096-47.104 28.672-75.776 79.872-77.824 135.168v2.048L94.208 801.792C108.544 865.28 141.312 877.568 165.888 877.568H860.16c36.864 0 59.392-22.528 73.728-77.824l73.728-253.952v-2.048c-6.144-90.112-73.728-157.696-159.744-159.744z m-167.936 155.648c16.384 0 45.056-6.144 63.488-47.104 18.432-40.96 59.392-67.584 104.448-67.584 63.488 2.048 112.64 51.2 114.688 112.64L890.88 785.408C878.592 834.56 866.304 834.56 858.112 834.56H163.84c-14.336 0-26.624-14.336-32.768-45.056L61.44 539.648c2.048-40.96 22.528-77.824 57.344-98.304 2.048 0 2.048-2.048 4.096-2.048 26.624-14.336 57.344-16.384 86.016-8.192 28.672 8.192 51.2 28.672 65.536 53.248 12.288 26.624 36.864 47.104 67.584 47.104h4.096c28.672-2.048 55.296-20.48 65.536-47.104 12.288-20.48 28.672-36.864 49.152-49.152l4.096-2.048c28.672-12.288 59.392-12.288 86.016-2.048 28.672 10.24 51.2 32.768 63.488 59.392 20.48 43.008 49.152 49.152 65.536 49.152z"  horiz-adv-x="1024" />

    
    <glyph glyph-name="new_baocunhaibao1" unicode="&#59404;" d="M512 896a512 512 0 1 1 512-512A512 512 0 0 1 512 896zM667.153067 460.8h-49.646934a19.8656 19.8656 0 0 0-20.6848 21.333333v136.533334A19.848533 19.848533 0 0 1 576.136533 640H443.733333a19.848533 19.848533 0 0 1-20.6848-21.333333v-140.8a19.848533 19.848533 0 0 0-20.6848-21.333334h-49.646933a19.831467 19.831467 0 0 1-12.407467-34.133333l157.218134-162.133333a20.189867 20.189867 0 0 1 24.832 0l157.218133 162.133333c12.407467 12.8 4.130133 38.4-12.407467 38.4zM307.2 157.866667A28.740267 28.740267 0 0 1 336.213333 128h351.624534a29.883733 29.883733 0 0 1 0 59.733333H336.162133a28.740267 28.740267 0 0 1-29.013333-29.866666z"  horiz-adv-x="1024" />

    
    <glyph glyph-name="new_shengchenghaibao1" unicode="&#59405;" d="M512 896a512 512 0 1 1 512-512A512 512 0 0 1 512 896zM299.7248 133.512533a25.770667 25.770667 0 0 0-3.413333 35.293867l79.496533 102.161067a23.432533 23.432533 0 0 0 33.8432 3.84 25.856 25.856 0 0 0 3.413333-35.293867l-79.496533-102.161067a23.893333 23.893333 0 0 0-18.773333-9.352533 23.261867 23.261867 0 0 0-15.018667 5.512533z m218.180267 50.090667a52.565333 52.565333 0 0 0-47.445334 30.72l-35.003733 72.3456a30.8224 30.8224 0 0 1-22.749867 17.237333l-77.277866 11.656534a54.3744 54.3744 0 0 0-23.552 10.103466 53.265067 53.265067 0 0 0-19.080534 27.613867 56.456533 56.456533 0 0 0 13.431467 56.593067l55.688533 56.8832a32.017067 32.017067 0 0 1 8.533334 27.921066l-13.294934 80.5376a56.32 56.32 0 0 0 21.213867 53.981867 50.961067 50.961067 0 0 0 55.978667 4.1472l68.864-37.905067a28.842667 28.842667 0 0 1 28.074666 0l68.949334 37.9904a50.961067 50.961067 0 0 0 56.234666-4.096 55.688533 55.688533 0 0 0 20.992-54.033066l-13.021866-80.213334a33.297067 33.297067 0 0 1 8.669866-27.904l55.8592-56.593066a56.576 56.576 0 0 0 13.482667-56.8832 53.333333 53.333333 0 0 0-42.666667-37.546667l-77.073066-11.656533a30.549333 30.549333 0 0 1-22.749867-17.066667l-34.594133-72.96a52.224 52.224 0 0 0-47.035734-30.72z"  horiz-adv-x="1024" />

    
    <glyph glyph-name="new_shoujihao" unicode="&#59406;" d="M512 896a512 512 0 1 1 512-512A512 512 0 0 1 512 896zM371.2 640h281.6A46.762667 46.762667 0 0 0 699.733333 593.493333V174.592A46.779733 46.779733 0 0 0 652.8 128h-281.6A46.779733 46.779733 0 0 0 324.266667 174.592V593.493333A46.762667 46.762667 0 0 0 371.2 640z m4.266667-51.2v-315.733333h273.066666V588.8H375.466667z m136.533333-437.504a46.5408 46.5408 0 1 1-46.5408 46.5408A46.5408 46.5408 0 0 1 512 151.296z"  horiz-adv-x="1024" />

    
    <glyph glyph-name="new_fuzhilianjie1" unicode="&#59407;" d="M512 896A512 512 0 1 0 0 384 512.187733 512.187733 0 0 0 512 896zM728.7296 411.136c-3.106133-3.072-11.946667-11.946667-67.720533-67.720533a38.331733 38.331733 0 1 0-54.203734 54.203733c57.275733 59.630933 62.941867 62.907733 67.720534 67.720533a57.463467 57.463467 0 1 1-81.271467 81.220267c-4.5056-4.7616-8.1408-10.24-67.720533-67.754667a38.314667 38.314667 0 1 0-54.152534 54.203734l54.1184 54.186666c1.621333 1.570133 10.478933 10.4448 13.550934 13.5168A134.0928 134.0928 0 1 0 728.7296 411.136z m-135.4752 54.152533a19.029333 19.029333 0 0 0 0-27.0848l-135.424-135.4752a19.1488 19.1488 0 0 0-27.0848 27.0848l135.424 135.4752a19.114667 19.114667 0 0 0 27.0848 0z m-243.780267-162.56a57.514667 57.514667 0 0 1 81.271467-81.271466c4.8128 4.8128 8.072533 10.478933 67.720533 67.754666a38.331733 38.331733 0 1 0 54.203734-54.203733l-54.203734-54.203733c-1.570133-1.621333-10.4448-10.4448-13.550933-13.5168a134.0928 134.0928 0 0 0-189.6448 189.6448c3.106133 3.072 11.946667 11.946667 13.550933 13.5168l54.203734 54.203733a38.314667 38.314667 0 1 0 54.152533-54.203733s-62.958933-63.1808-67.703467-67.720534z"  horiz-adv-x="1024" />

    
    <glyph glyph-name="new_xiugaixinxi" unicode="&#59400;" d="M0 88.128531V-128h210.753048l610.074614 632.00317-210.881036 216.128531z m981.665515 580.210821a55.674641 55.674641 0 0 1 0 79.651001L854.232447 878.92175a52.944237 52.944237 0 0 1-77.773848 0l-99.830391-102.390145 210.881036-216.12853z m-482.513558-682.600966L388.2293-128H1109.22657v113.738386z"  horiz-adv-x="1109" />

    
    <glyph glyph-name="new_shengchenghaibao" unicode="&#59401;" d="M836.266667-76.8H187.733333c-75.093333 0-136.533333 61.44-136.533333 136.533333V708.266667c0 75.093333 61.44 136.533333 136.533333 136.533333h648.533334c75.093333 0 136.533333-61.44 136.533333-136.533333v-648.533334c0-75.093333-61.44-136.533333-136.533333-136.533333zM187.733333 776.533333c-37.546667 0-68.266667-30.72-68.266666-68.266666v-648.533334c0-37.546667 30.72-68.266667 68.266666-68.266666h648.533334c37.546667 0 68.266667 30.72 68.266666 68.266666V708.266667c0 37.546667-30.72 68.266667-68.266666 68.266666H187.733333zM358.4 537.6m-68.266667 0a68.266667 68.266667 0 1 1 136.533334 0 68.266667 68.266667 0 1 1-136.533334 0ZM358.4 537.6m-68.266667 0a68.266667 68.266667 0 1 1 136.533334 0 68.266667 68.266667 0 1 1-136.533334 0ZM238.933333 73.386667c-3.413333 0-6.826667 0-10.24 1.706666-18.773333 5.12-27.306667 25.6-22.186666 42.666667 0 1.706667 66.56 201.386667 315.733333 179.2C716.8 281.6 786.773333 573.44 786.773333 576.853333c5.12 18.773333 22.186667 29.013333 40.96 25.6 18.773333-5.12 29.013333-22.186667 25.6-40.96-3.413333-13.653333-85.333333-353.28-336.213333-331.093333-196.266667 17.066667-245.76-131.413333-245.76-133.12-5.12-13.653333-18.773333-23.893333-32.426667-23.893333z"  horiz-adv-x="1024" />

    
    <glyph glyph-name="new_fuzhilianjie" unicode="&#59402;" d="M308.906667-85.333333c-44.373333 0-87.04 17.066667-121.173334 49.493333l-76.8 76.8c-66.56 66.56-66.56 175.786667 0 242.346667l252.586667 252.586666c66.56 66.56 175.786667 66.56 242.346667 0l58.026666-58.026666c13.653333-13.653333 13.653333-34.133333 0-47.786667-13.653333-13.653333-34.133333-13.653333-47.786666 0l-58.026667 58.026667c-39.253333 39.253333-105.813333 39.253333-145.066667 0L160.426667 235.52c-39.253333-39.253333-39.253333-105.813333 0-145.066667l76.8-76.8c40.96-39.253333 105.813333-39.253333 145.066666 0l76.8 76.8c13.653333 13.653333 34.133333 13.653333 47.786667 0 13.653333-13.653333 13.653333-34.133333 0-47.786666l-76.8-76.8c-34.133333-34.133333-78.506667-51.2-121.173333-51.2z m250.88 257.706666c-37.546667 0-76.8 11.946667-109.226667 35.84-3.413333 1.706667-6.826667 3.413333-8.533333 6.826667l-5.12 5.12-54.613334 54.613333c-13.653333 13.653333-13.653333 34.133333 0 47.786667 13.653333 13.653333 34.133333 13.653333 47.786667 0l59.733333-58.026667c44.373333-32.426667 104.106667-30.72 145.066667 3.413334l8.533333 6.826666 240.64 240.64c39.253333 42.666667 39.253333 107.52-1.706666 148.48l-71.68 71.68c-40.96 40.96-107.52 42.666667-150.186667 1.706667l-76.8-76.8c-13.653333-13.653333-34.133333-13.653333-47.786667 0-13.653333 13.653333-13.653333 34.133333 0 47.786667l76.8 76.8c69.973333 66.56 177.493333 64.853333 245.76-1.706667l71.68-71.68c68.266667-68.266667 69.973333-175.786667 3.413334-245.76L687.786667 220.16s-6.826667-5.12-10.24-8.533333c-34.133333-23.893333-76.8-39.253333-117.76-39.253334z"  horiz-adv-x="1024" />

    
    <glyph glyph-name="new_baocunhaibao" unicode="&#59403;" d="M512 196.266667c-18.773333 0-34.133333 15.36-34.133333 34.133333V776.533333c0 18.773333 15.36 34.133333 34.133333 34.133334s34.133333-15.36 34.133333-34.133334v-546.133333c0-18.773333-15.36-34.133333-34.133333-34.133333zM512 128.512c-8.533333 0-17.066667 3.413333-23.893333 8.533333l-298.666667 281.6c-13.653333 13.653333-13.653333 34.133333-1.706667 47.786667 13.653333 13.653333 34.133333 13.653333 47.786667 1.706667l300.373333-281.6c13.653333-13.653333 13.653333-34.133333 1.706667-47.786667-6.826667-6.826667-17.066667-10.24-25.6-10.24zM520.533333 128.512c-8.533333 0-18.773333 3.413333-25.6 10.24-13.653333 13.653333-11.946667 35.84 1.706667 47.786667l298.666667 281.6c13.653333 13.653333 35.84 11.946667 47.786666-1.706667 13.653333-13.653333 11.946667-35.84-1.706666-47.786667l-296.96-281.6c-6.826667-5.12-15.36-8.533333-23.893334-8.533333zM819.2-42.666667H204.8c-18.773333 0-34.133333 15.36-34.133333 34.133334s15.36 34.133333 34.133333 34.133333h614.4c18.773333 0 34.133333-15.36 34.133333-34.133333s-15.36-34.133333-34.133333-34.133334z"  horiz-adv-x="1024" />

    
    <glyph glyph-name="new_kehumorentouxiang" unicode="&#59399;" d="M0 384.000683A511.999317 511.999317 0 1 1 511.999317 896 512.829894 512.829894 0 0 1 0 384.000683zM511.999317-127.998635a516.914511 516.914511 0 0 0-191.248811 36.329196 494.932673 494.932673 0 0 0-162.952316 104.857461A386.252285 386.252285 0 0 0 298.734535 174.308518a394.137074 394.137074 0 0 0 426.506809 0.785065 381.155047 381.155047 0 0 0 140.959101-161.905561 496.241116 496.241116 0 0 0-159.026988-103.298707A515.651579 515.651579 0 0 0 511.999317-127.998635z m-20.570994 224.21019c-26.85152-56.479214-41.050967-95.903161-41.050968-114.005181 0-28.671962 46.648827-49.937 60.984808-55.751037l0.45511-0.182044 0.398222 0.159289c14.256337 5.814037 60.780008 27.056319 60.780008 56.058236 0 24.371168-25.713743 81.715091-41.03959 113.777626a46.921893 46.921893 0 0 0-20.400328-4.699016 45.283495 45.283495 0 0 0-20.127262 4.699016z m20.900949 72.954214a24.314279 24.314279 0 1 1 24.348412-24.325656 24.337034 24.337034 0 0 1-24.348412 24.325656z m-0.682665 72.373948A214.061226 214.061226 0 0 0 314.344825 537.259145a213.537849 213.537849 0 0 0 197.301782 131.982046h0.614399a214.061226 214.061226 0 0 0 197.35867-295.742183 213.549226 213.549226 0 0 0-197.347292-131.982046h-0.625777z"  horiz-adv-x="1024" />

    
    <glyph glyph-name="new_bofang" unicode="&#59398;" d="M512 384m-512 0a512 512 0 1 1 1024 0 512 512 0 1 1-1024 0ZM658.773333 412.125867a34.133333 34.133333 0 0 0 0-56.32l-178.688-122.88a34.133333 34.133333 0 0 0-53.418666 28.194133v245.76a34.133333 34.133333 0 0 0 53.469866 28.125867z"  horiz-adv-x="1024" />

    
    <glyph glyph-name="new_xiazai" unicode="&#59394;" d="M537.6 76.8c-15.36 0-25.6 10.24-25.6 25.6V870.4c0 15.36 10.24 25.6 25.6 25.6s25.6-10.24 25.6-25.6v-768c0-15.36-10.24-25.6-25.6-25.6zM540.16 51.2c-7.68 0-12.8 2.56-17.92 7.68L238.08 355.84c-10.24 10.24-10.24 25.6 0 35.84s25.6 10.24 35.84 0l266.24-279.04 286.72 289.28c10.24 10.24 25.6 10.24 35.84 0s10.24-25.6 0-35.84l-304.64-307.2c-5.12-5.12-12.8-7.68-17.92-7.68zM998.4-128H25.6c-15.36 0-25.6 10.24-25.6 25.6s10.24 25.6 25.6 25.6h972.8c15.36 0 25.6-10.24 25.6-25.6s-10.24-25.6-25.6-25.6z"  horiz-adv-x="1024" />

    
    <glyph glyph-name="new_shanchu1" unicode="&#59395;" d="M614.4 844.8h-204.8c-15.36 0-25.6 10.24-25.6 25.6s10.24 25.6 25.6 25.6h204.8c15.36 0 25.6-10.24 25.6-25.6s-10.24-25.6-25.6-25.6zM998.4 742.4H25.6c-15.36 0-25.6 10.24-25.6 25.6s10.24 25.6 25.6 25.6h972.8c15.36 0 25.6-10.24 25.6-25.6s-10.24-25.6-25.6-25.6zM768-128H256c-99.84 0-179.2 79.36-179.2 179.2V768c0 15.36 10.24 25.6 25.6 25.6h819.2c15.36 0 25.6-10.24 25.6-25.6v-716.8c0-99.84-79.36-179.2-179.2-179.2zM128 742.4v-691.2c0-71.68 56.32-128 128-128h512c71.68 0 128 56.32 128 128V742.4H128zM425.8304 150.7072c-15.36 0-25.6 10.24-25.6 25.6v256c0 15.36 10.24 25.6 25.6 25.6s25.6-10.24 25.6-25.6v-256c0-15.36-10.24-25.6-25.6-25.6zM617.8304 150.7072c-15.36 0-25.6 10.24-25.6 25.6v256c0 15.36 10.24 25.6 25.6 25.6s25.6-10.24 25.6-25.6v-256c0-15.36-10.24-25.6-25.6-25.6z"  horiz-adv-x="1024" />

    
    <glyph glyph-name="new_shiyongjiqiao" unicode="&#59396;" d="M526.56355555 279.14239999999995c-17.47626667 0-29.12711111 11.65084445-29.1271111 29.12711111v37.86524444c0 11.65084445 0 20.38897778 2.9127111 32.03982223 0 5.82542222 2.91271111 8.73813333 8.73813334 14.56355555 2.91271111 2.91271111 5.82542222 2.91271111 8.73813333 5.82542222 0 0 2.91271111 0 2.91271111 2.91271112l5.82542222 2.91271111c17.47626667 11.65084445 66.99235555 52.4288 66.99235556 93.20675555 0 26.2144-8.73813333 49.51608889-26.2144 69.90506667-17.47626667 17.47626667-43.69066667 23.30168889-69.90506666 20.38897778-75.73048889-2.91271111-84.46862222-93.20675555-84.46862223-96.11946667-2.91271111-14.56355555-14.56355555-29.12711111-32.03982222-26.2144-17.47626667 2.91271111-29.12711111 14.56355555-26.2144 32.03982222 5.82542222 49.51608889 37.86524445 142.72284445 139.81013333 148.54826667 40.77795555 5.82542222 84.46862222-8.73813333 116.50844445-37.86524445 29.12711111-29.12711111 46.60337778-69.90506667 43.69066667-110.68302222 0-66.99235555-64.07964445-119.42115555-90.29404445-136.89742222l-2.91271111-2.91271111V311.18222221999997c-5.82542222-20.38897778-17.47626667-32.03982222-34.95253334-32.03982222zM512-82.03377778000004c-84.46862222 0-168.93724445 23.30168889-244.66773333 69.90506667-104.8576 66.99235555-180.58808889 168.93724445-209.7152 288.3584-29.12711111 122.33386667-8.73813333 247.58044445 58.25422222 352.43804444 133.98471111 218.45333333 422.34311111 285.44568889 640.79644444 151.46097778 14.56355555-8.73813333 17.47626667-26.2144 8.73813334-40.77795556-8.73813333-14.56355555-26.2144-17.47626667-40.77795556-8.73813333-192.23893333 119.42115555-442.73208889 58.25422222-562.15324444-131.072-58.25422222-93.20675555-75.73048889-200.97706667-49.51608889-308.74737777 26.2144-104.8576 90.29404445-195.15164445 183.5008-253.40586667 93.20675555-58.25422222 200.97706667-75.73048889 308.74737777-49.51608889 104.8576 26.2144 195.15164445 90.29404445 253.40586667 183.5008 90.29404445 145.63555555 78.6432 334.96177778-29.12711111 471.8592-8.73813333 11.65084445-8.73813333 32.03982222 5.82542222 40.77795556 11.65084445 8.73813333 32.03982222 8.73813333 40.77795556-5.82542223 125.24657778-154.37368889 136.89742222-369.91431111 32.03982222-538.85155555-66.99235555-104.8576-168.93724445-180.58808889-288.3584-209.7152-37.86524445-8.73813333-72.81777778-11.65084445-107.77031111-11.65084445zM529.47626667 171.37208889m-43.69066667 0a43.69066667 43.69066667 0 1 1 87.38133333 0 43.69066667 43.69066667 0 1 1-87.38133333 0Z"  horiz-adv-x="1024" />

    
    <glyph glyph-name="new_quxiaoxiazai" unicode="&#59397;" d="M512-128C230.4-128 0 102.4 0 384S230.4 896 512 896s512-230.4 512-512-230.4-512-512-512z m0 972.8C258.56 844.8 51.2 637.44 51.2 384s207.36-460.8 460.8-460.8 460.8 207.36 460.8 460.8S765.44 844.8 512 844.8zM333.8496 186.368c-7.68 0-12.8 2.56-17.92 7.68-10.24 10.24-10.24 25.6 0 35.84l332.8 325.12c10.24 10.24 25.6 10.24 35.84 0 10.24-10.24 10.24-25.6 0-35.84l-332.8-325.12c-5.12-5.12-12.8-7.68-17.92-7.68zM666.6496 186.368c-7.68 0-12.8 2.56-17.92 7.68l-332.8 325.12c-10.24 10.24-10.24 25.6 0 35.84s25.6 10.24 35.84 0l332.8-325.12c10.24-10.24 10.24-25.6 0-35.84-5.12-5.12-12.8-7.68-17.92-7.68z"  horiz-adv-x="1024" />

    
    </font>
</defs>
</svg>
